<svg xmlns="http://www.w3.org/2000/svg" width="168" height="48" viewBox="0 0 168 48"><title>Agnium Brand Asset</title><path d="M23.986 4.2c-.43-.008-.745.474-.97 1.475-1.295 5.073-5.022 10.374-8.49 14.666-3.47 4.292-8.068 8.608-3.816 16.59 2.985 4.773 7.374 6.423 11.057 6.87-.967-.653-1.823-1.422-2.385-2.31-2.238-3.54-1.28-7.098-1.28-7.098s2.762 6.007 6.946 7.82c1.43.62 2.575 1.01 3.548 1.235 0 0 13.892-4.33 9.57-16.766-.36-1.034-.967-1.988-1.607-2.804-1.09-1.39-2.02-2.173-2.716-2.613-.164.965-.396 1.936-.72 2.802-1.274 3.386-3.657 3.603-3.657 3.603s2.034-.242 1.614-6.607c-.287-4.363-2.222-10.096-3.837-12.892-1.494-2.588-2.538-3.958-3.257-3.97z" fill="#f44336"/><path d="M24.456 4.368c1.252 2.055 3.137 5.814 3.66 12.894 1.15 15.51-4.588 21.22-6.254 22.628.927.956 2 1.808 3.186 2.322 1.43.62 2.575 1.01 3.548 1.234 0 0 13.892-4.33 9.57-16.765-.36-1.034-.967-1.988-1.607-2.804-1.09-1.39-2.02-2.173-2.716-2.613-.164.965-.396 1.936-.72 2.802-1.274 3.386-3.657 3.603-3.657 3.603s2.034-.242 1.614-6.607c-.287-4.363-2.222-10.096-3.837-12.892-1.196-2.072-2.103-3.362-2.786-3.8z" fill="#d32f2f"/><path d="M33.844 21.263c1.28 2.724 3.278 7.908 1.783 12.485-1.753 5.367-4.74 8.137-7.16 9.667.042.01.086.022.128.03h.002c.017-.004 13.888-4.336 9.57-16.764-.36-1.034-.968-1.988-1.608-2.804-1.092-1.39-2.02-2.173-2.716-2.613z" fill="#b71c1c"/><path style="line-height:125%;-inkscape-font-specification:Roboto" d="M107.393 16.073c-.89 0-1.322.46-1.322 1.32v1.66c0 .893.432 1.323 1.323 1.323h2.03c.89 0 1.32-.43 1.32-1.322v-1.66c0-.86-.43-1.32-1.32-1.32h-2.03zm-51.647.645c-.768 0-1.444.46-1.63 1.23L48 37.928h4.795l1.537-5.563h7.286l1.537 5.564h4.764L61.8 17.947c-.184-.77-.83-1.23-1.63-1.23h-4.426zm1.814 3.535h.83c.092.646.277 1.353.43 1.998l1.783 6.488h-5.287L57.1 22.25c.153-.644.306-1.35.46-1.997zm18.948 2.09c-5.35 0-7.163 1.353-7.163 4.888 0 2.03.646 3.352 2.244 4.09-1.476.86-1.906 3.35-.492 4.672-1.753.83-2.398 1.722-2.398 3.29 0 3.38 1.69 4.518 7.992 4.518 5.84 0 7.962-.984 7.962-4.918 0-2.736-1.23-4.15-4.396-4.52l-5.502-.645c-1.168-.123-1.29-1.168-.892-1.813.77.092 1.63.153 2.613.153 5.35 0 7.132-1.383 7.132-4.856 0-.86-.124-1.598-.37-2.182l1.906-.246.215-1.998h-4.887c-1.014-.277-2.305-.43-3.965-.43zm21.614 0c-2.152 0-4.365.954-6.486 2.675l-.34-2.244H87.61V37.93h4.548V27.57c1.783-.892 2.982-1.384 4.212-1.384 1.106 0 1.475.4 1.475 1.783v9.96h4.52V26.554c0-2.736-1.477-4.21-4.243-4.21zm44.23 0c-2.152 0-3.874.892-5.78 2.644l-.307-2.213h-3.627V37.93h4.518V27.507c1.66-1.015 2.367-1.322 3.35-1.322 1.138 0 1.63.43 1.63 1.783v9.96h4.365V27.54c1.66-1.016 2.368-1.354 3.383-1.354 1.23 0 1.598.492 1.598 1.783v9.96H156V26.554c0-2.736-1.476-4.21-4.21-4.21-2.03 0-3.72.798-5.534 2.458-.554-1.63-1.876-2.46-3.904-2.46zm-36.188.43V37.93h4.518V22.773h-4.518zm8.25 0v11.344c0 2.797 1.445 4.21 4.273 4.21 2.182 0 4.15-.798 6.27-2.49l.34 2.092h3.595V22.773h-4.518v10.482c-1.63.83-2.675 1.26-3.78 1.26-1.23 0-1.66-.46-1.63-1.782v-9.96h-4.55zm-37.937 2.49c2.244 0 2.92.43 2.92 1.938 0 1.476-.676 1.968-2.92 1.968-2.244 0-2.95-.492-2.95-1.967 0-1.506.706-1.936 2.95-1.936zm-2.46 11.682l3.813.4c1.936.215 2.49.307 2.49 1.414 0 1.382-.707 1.66-3.69 1.66-2.92 0-3.596-.217-3.596-1.723 0-.768.308-1.2.984-1.752z" font-size="512.33" font-family="Roboto" letter-spacing="0" word-spacing="0" fill="#b71c1c"/></svg>