<?xml version="1.0" encoding="UTF-8" standalone="no"?>
<svg
   xmlns:dc="http://purl.org/dc/elements/1.1/"
   xmlns:cc="http://creativecommons.org/ns#"
   xmlns:rdf="http://www.w3.org/1999/02/22-rdf-syntax-ns#"
   xmlns:svg="http://www.w3.org/2000/svg"
   xmlns="http://www.w3.org/2000/svg"
   xmlns:sodipodi="http://sodipodi.sourceforge.net/DTD/sodipodi-0.dtd"
   xmlns:inkscape="http://www.inkscape.org/namespaces/inkscape"
   viewBox="0 0 511.99999 512"
   height="512"
   width="512"
   xml:space="preserve"
   version="1.1"
   id="svg2"
   inkscape:version="0.91 r"
   sodipodi:docname="android.svg"
   inkscape:export-filename="/home/mhaidarh/all/visual/brand-logo/android/android_robot_outlined.png"
   inkscape:export-xdpi="20.549999"
   inkscape:export-ydpi="20.549999"><sodipodi:namedview
     pagecolor="#ffffff"
     bordercolor="#666666"
     borderopacity="1"
     objecttolerance="10"
     gridtolerance="10"
     guidetolerance="10"
     inkscape:pageopacity="0"
     inkscape:pageshadow="2"
     inkscape:window-width="1021"
     inkscape:window-height="715"
     id="namedview28"
     showgrid="false"
     inkscape:zoom="0.68627521"
     inkscape:cx="269.47123"
     inkscape:cy="253.12835"
     inkscape:window-x="343"
     inkscape:window-y="24"
     inkscape:window-maximized="0"
     inkscape:current-layer="svg2" /><metadata
     id="metadata8"><rdf:RDF><cc:Work
         rdf:about=""><dc:format>image/svg+xml</dc:format><dc:type
           rdf:resource="http://purl.org/dc/dcmitype/StillImage" /><dc:title></dc:title></cc:Work></rdf:RDF></metadata><defs
     id="defs6"><clipPath
       id="clipPath16"
       clipPathUnits="userSpaceOnUse"><path
         id="path18"
         d="m 0,595.28 841.89,0 L 841.89,0 0,0 0,595.28 Z"
         inkscape:connector-curvature="0" /></clipPath></defs><g
     id="g4224"
     transform="matrix(0.99716066,0,0,0.99716066,-303.40343,-140.14296)"><path
       inkscape:connector-curvature="0"
       d="m 383.45052,509.30041 c -22.876,0.0133 -41.46,-18.59467 -41.46267,-41.468 l -0.0107,-126.956 c -0.008,-22.84933 18.572,-41.45333 41.41733,-41.45733 11.10933,-0.009 21.50667,4.3 29.348,12.128 7.84133,7.832 12.152,18.248 12.16,29.31733 l -0.0107,126.96667 c 0.028,11.05466 -4.27066,21.472 -12.10533,29.292 -7.81867,7.85466 -18.24667,12.17333 -29.336,12.17733"
       style="fill:#ffffff;fill-opacity:1;fill-rule:nonzero;stroke:none"
       id="path22" /><path
       inkscape:connector-curvature="0"
       d="m 708.61972,316.84735 -11.14533,-0.004 -273.084,0.036 -11.14933,0.004 -0.004,-11.148 c -0.0253,-45.76133 24.90667,-88.32266 65.73867,-113.46933 l -15.87467,-28.97733 c -1.944,-3.39734 -2.42933,-7.696 -1.3,-11.63067 1.148,-3.932 3.85867,-7.30933 7.49467,-9.244 2.10133,-1.192 4.668,-1.85467 7.26533,-1.85067 5.62133,10e-4 10.77733,3.052 13.48933,7.98534 l 16.616,30.268 c 17.196,-6.30934 35.348,-9.52534 54.10133,-9.51867 19.024,-0.008 37.268,3.212 54.536,9.54533 l 16.58934,-30.32 c 2.67066,-4.92133 7.86,-7.98666 13.47466,-7.98133 2.528,-0.003 5.048,0.61467 7.27333,1.812 3.732,2.048 6.33467,5.312 7.48,9.272 1.14,3.936 0.68267,8.09333 -1.31733,11.69867 l -15.86667,28.964 c 40.77067,25.19733 65.672,67.72799 65.668,113.40933 l 0.0147,11.14933 z"
       style="fill:#ffffff;fill-opacity:1;fill-rule:nonzero;stroke:none"
       id="path30" /><path
       inkscape:connector-curvature="0"
       d="m 510.24279,653.99961 c -22.85333,-0.003 -41.452,-18.592 -41.45733,-41.46 l -0.0107,-56.03066 -10.88933,0.009 c -11.63734,0.003 -22.55733,-4.51867 -30.76533,-12.732 -8.21867,-8.20533 -12.74667,-19.13333 -12.73067,-30.77867 l -0.04,-196.70666 -0.003,-11.156 11.148,0.003 271.03333,-0.0427 11.152,-0.008 10e-4,11.148 0.028,196.732 c 0.004,23.99066 -19.51333,43.51333 -43.5,43.508 l -10.964,0.0133 0.016,56.01066 c -0.003,22.85334 -18.59466,41.46267 -41.43866,41.46134 -11.07334,0.0253 -21.46934,-4.28 -29.316,-12.12934 -7.85467,-7.828 -12.17733,-18.23733 -12.172,-29.30533 l -0.001,-56.03866 -18.63067,-10e-4 0,56.02933 c -0.004,22.86134 -18.59733,41.47867 -41.46,41.47467"
       style="fill:#ffffff;fill-opacity:1;fill-rule:nonzero;stroke:none"
       id="path38" /><path
       inkscape:connector-curvature="0"
       d="m 738.57545,509.24961 c -22.864,0.003 -41.464,-18.57733 -41.45733,-41.44933 l -0.0307,-126.956 c 0.005,-22.86933 18.57467,-41.46933 41.42933,-41.47066 22.88267,-0.003 41.49067,18.59333 41.48667,41.45733 l 0.012,126.94799 c 0.005,22.85467 -18.57733,41.47467 -41.44,41.47067"
       style="fill:#ffffff;fill-opacity:1;fill-rule:nonzero;stroke:none"
       id="path46" /><path
       inkscape:connector-curvature="0"
       d="m 769.12402,340.40603 c -0.003,-16.74267 -13.57333,-30.312 -30.31467,-30.308 -16.74,-0.0133 -30.30933,13.58 -30.30533,30.324 l 0.0213,126.95333 c -10e-4,16.76 13.56267,30.30533 30.31467,30.31067 16.74,-0.003 30.30267,-13.55067 30.30667,-30.324 l -0.0227,-126.956 z m -343.35599,-24.544 0.0467,196.74 c -0.0147,17.896 14.45999,32.33999 32.34666,32.34399 l 22.02533,0.009 0.0253,67.172 c -0.004,16.72133 13.59066,30.31865 30.29333,30.31865 16.752,0 30.32267,-13.60799 30.32667,-30.33999 l -0.016,-67.15866 40.92799,-0.008 0.0173,67.16933 c -0.004,16.71467 13.59866,30.33202 30.304,30.30532 16.75066,0.011 30.32933,-13.59732 30.32666,-30.33199 l -0.0187,-67.15066 22.10266,-0.0173 c 17.84267,0.007 32.35734,-14.45866 32.36134,-32.35466 l -0.0333,-196.74266 -271.03599,0.0453 z m 197.64399,-60.03866 c -6.31333,0.007 -11.452,-5.112 -11.45066,-11.44667 0.0213,-6.27333 5.13066,-11.45067 11.456,-11.472 6.27866,0.0173 11.42933,5.19333 11.424,11.47867 0.0147,6.32133 -5.11867,11.44133 -11.42934,11.44 m -124.34399,0.0227 c -6.288,-0.0147 -11.41067,-5.12666 -11.412,-11.44133 0.003,-6.29067 5.11333,-11.46267 11.42266,-11.46133 6.332,-0.005 11.45334,5.17066 11.46134,11.45866 0.003,6.30934 -5.13067,11.44 -11.472,11.444 m 129.09066,-59.70933 21.16,-38.64133 c 1.128,-2.01867 0.388,-4.59067 -1.66,-5.73067 -2.06267,-1.09333 -4.61333,-0.35067 -5.704,1.68267 l -21.372,39.044 c -17.988,-8.00134 -38.10933,-12.49334 -59.404,-12.46934 -21.23866,-0.0173 -41.35466,4.45467 -59.264,12.412 l -21.39466,-38.94266 c -1.11467,-2.05467 -3.67334,-2.79734 -5.69334,-1.67867 -2.06,1.108 -2.812,3.684 -1.67066,5.69867 l 21.16933,38.612 c -41.59333,21.452 -69.69466,62.29866 -69.67333,109.19466 l 273.08133,-0.028 c 0.008,-46.88933 -28.04267,-87.65066 -69.57467,-109.15333 M 383.6867,310.13803 c -16.74134,-0.008 -30.30934,13.588 -30.31334,30.31467 l 0.0227,126.95066 c 0.004,16.784 13.57733,30.32667 30.32,30.324 16.752,0.001 30.32267,-13.54933 30.30533,-30.32267 l 0.003,-126.96933 c -0.007,-16.72266 -13.59467,-30.308 -30.33733,-30.29733"
       style="fill:#a4c439;fill-opacity:1;fill-rule:nonzero;stroke:none"
       id="path54" /></g></svg>