<?xml version="1.0" encoding="UTF-8" standalone="no"?>
<svg
   xmlns:dc="http://purl.org/dc/elements/1.1/"
   xmlns:cc="http://creativecommons.org/ns#"
   xmlns:rdf="http://www.w3.org/1999/02/22-rdf-syntax-ns#"
   xmlns:svg="http://www.w3.org/2000/svg"
   xmlns="http://www.w3.org/2000/svg"
   xmlns:sodipodi="http://sodipodi.sourceforge.net/DTD/sodipodi-0.dtd"
   xmlns:inkscape="http://www.inkscape.org/namespaces/inkscape"
   viewBox="0 0 800 512"
   id="svg2"
   version="1.1"
   inkscape:version="0.91 r"
   sodipodi:docname="html5-css3.svg"
   width="800"
   height="512">
  <metadata
     id="metadata30">
    <rdf:RDF>
      <cc:Work
         rdf:about="">
        <dc:format>image/svg+xml</dc:format>
        <dc:type
           rdf:resource="http://purl.org/dc/dcmitype/StillImage" />
        <dc:title>HTML5 Logo</dc:title>
      </cc:Work>
    </rdf:RDF>
  </metadata>
  <defs
     id="defs28" />
  <sodipodi:namedview
     pagecolor="#ffffff"
     bordercolor="#666666"
     borderopacity="1"
     objecttolerance="10"
     gridtolerance="10"
     guidetolerance="10"
     inkscape:pageopacity="0"
     inkscape:pageshadow="2"
     inkscape:window-width="1366"
     inkscape:window-height="744"
     id="namedview26"
     showgrid="false"
     inkscape:zoom="0.55311639"
     inkscape:cx="222.88954"
     inkscape:cy="237.95568"
     inkscape:window-x="0"
     inkscape:window-y="24"
     inkscape:window-maximized="1"
     inkscape:current-layer="svg2" />
  <title
     id="title4">HTML5 Logo</title>
  <g
     id="g4235"
     transform="translate(-74.633,0)">
    <polygon
       id="polygon6"
       points="74.633,100.62 437.367,100.62 404.321,470.819 255.778,512 107.644,470.877 "
       style="fill:#e44d26" />
    <polygon
       id="polygon8"
       points="404.27,130.894 256,130.894 256,480.523 376.03,447.246 "
       style="fill:#f16529" />
    <polygon
       id="polygon10"
       points="142.132,176.305 143.219,188.488 154.38,313.627 256,313.627 256,268.217 195.91,268.217 191.76,221.716 256,221.716 256,176.305 255.843,176.305 "
       style="fill:#ebebeb" />
    <polygon
       id="polygon12"
       points="162.771,407.634 255.791,433.457 256,433.399 256,386.153 255.801,386.206 205.227,372.55 201.994,336.333 177.419,336.333 156.409,336.333 "
       style="fill:#ebebeb" />
    <path
       id="path14"
       d="m 108.382,0 23.077,0 0,22.8 21.11,0 0,-22.8 23.078,0 0,69.044 -23.077,0 0,-23.12 -21.11,0 0,23.12 -23.077,0 0,-69.044 z"
       inkscape:connector-curvature="0" />
    <path
       id="path16"
       d="m 205.994,22.896 -20.316,0 0,-22.896 63.72,0 0,22.896 -20.325,0 0,46.148 -23.078,0 0,-46.148 z"
       inkscape:connector-curvature="0" />
    <path
       id="path18"
       d="m 259.511,0 24.063,0 14.802,24.26 14.787,-24.26 24.072,0 0,69.044 -22.982,0 0,-34.222 -15.877,24.549 -0.397,0 -15.888,-24.549 0,34.222 -22.58,0 0,-69.044 z"
       inkscape:connector-curvature="0" />
    <path
       id="path20"
       d="m 348.72,0 23.084,0 0,46.222 32.453,0 0,22.822 -55.537,0 0,-69.044 z"
       inkscape:connector-curvature="0" />
    <polygon
       id="polygon22"
       points="348.937,407.634 349.62,399.962 360.291,280.411 361.399,268.217 349.162,268.217 255.843,268.217 255.843,313.627 311.761,313.627 306.49,372.521 255.843,386.191 255.843,433.435 "
       style="fill:#ffffff" />
    <polygon
       id="polygon24"
       points="365.531,221.716 366.442,211.509 368.511,188.488 369.597,176.305 255.843,176.305 255.843,204.509 255.843,221.605 255.843,221.716 365.385,221.716 365.385,221.716 "
       style="fill:#ffffff" />
  </g>
  <g
     id="g4247"
     transform="matrix(1.2194076,0,0,1.2194076,-204.61606,-62.674578)">
    <g
       transform="translate(526.33483,51.262568)"
       style="fill:none;fill-rule:evenodd;stroke:none;stroke-width:1"
       id="Page 1">
      <g
         id="Layer_1">
        <path
           style="fill:#131313"
           inkscape:connector-curvature="0"
           d="m 233.164,15.681 -24.688,0 25.674,27.859 0,13.261 -52.882,0 0,-15.526 25.669,0 -25.669,-27.86 0,-13.28 51.896,0 0,15.546 0,0 z m -62.378,0 -24.688,0 25.673,27.859 0,13.261 -52.882,0 0,-15.526 25.672,0 -25.672,-27.86 0,-13.28 51.897,0 0,15.546 0,0 z m -61.768,0.631 -26.64,0 0,24.313 26.64,0 0,16.176 -45.574,0 0,-56.666 45.574,0 0,16.177 0,0 z m 0,0"
           id="Shape" />
        <path
           style="fill:#1572b6"
           inkscape:connector-curvature="0"
           d="M 27.142,386.29 0.071,82.67 l 297.45,0 -27.096,303.571 -121.811,33.77 L 27.142,386.29 Z m 0,0"
           id="path4205" />
        <path
           style="fill:#33a9dc"
           inkscape:connector-curvature="0"
           d="m 148.798,394.199 98.427,-27.288 23.157,-259.415 -121.584,0 0,286.703 z m 0,0"
           id="path4207" />
        <g
           id="Group"
           transform="translate(55,142)">
          <path
             style="fill:#ffffff"
             inkscape:connector-curvature="0"
             d="m 93.797,75.496 49.275,0 3.403,-38.132 -52.678,0 0,-37.239 0.129,0 93.246,0 -0.893,9.991 -9.152,102.616 -83.33,0 0,-37.236 z m 0,0"
             id="path4210" />
          <path
             style="fill:#ebebeb"
             inkscape:connector-curvature="0"
             d="m 94.02,172.204 -0.163,0.046 -41.472,-11.199 -2.652,-29.698 -20.151,0 -17.228,0 5.216,58.467 76.278,21.176 0.172,-0.048 0,-38.744 z m 0,0"
             id="path4212" />
          <path
             style="fill:#ffffff"
             inkscape:connector-curvature="0"
             d="m 139.907,111.156 -4.484,49.87 -41.532,11.21 0,38.742 76.339,-21.158 0.56,-6.29 6.478,-72.374 -37.361,0 z m 0,0"
             id="path4214" />
          <path
             style="fill:#ebebeb"
             inkscape:connector-curvature="0"
             d="m 93.926,0.125 0,23.128 0,14.019 0,0.092 -89.828,0 -0.119,0 -0.747,-8.37 -1.697,-18.878 -0.89,-9.991 93.281,0 z m 0,0"
             id="path4216" />
          <path
             style="fill:#ebebeb"
             inkscape:connector-curvature="0"
             d="m 93.797,75.5 0,23.129 0,14.017 0,0.092 -40.828,0 -0.119,0 -0.746,-8.369 -1.698,-18.878 -0.89,-9.991 44.281,0 z m 0,0"
             id="path4218" />
        </g>
      </g>
    </g>
  </g>
</svg>
