<svg xmlns="http://www.w3.org/2000/svg" viewBox="0 0 100 100" width="100" height="100"><g transform="translate(0 -2.214)" fill="#f44336"><circle cx="12.721" cy="36.052" r="7.059"/><path d="M53.198 28.337l-5.713 5.712c-.17.168-.314.338-.423.532-.28.387-.448.81-.533 1.26-.05.23-.073.47-.073.713 0 .23.023.448.06.666l.568 1.332c.11.182.243.34.4.497h.012c.41.423.908.713 1.44.87.133.037.265.073.41.097.05 0 .097.013.146.024.134.025.266.038.41.025.026.012.063.012.086.012H64.1c.97 0 1.864-.4 2.493-1.03.642-.64 1.04-1.524 1.04-2.492 0-1.948-1.585-3.534-3.533-3.534h-5.59L69 22.53l3.752 3.75.025.025c.072.085.157.182.242.267l12.49 12.477c.69.69 1.587 1.04 2.494 1.04.907 0 1.804-.35 2.492-1.04 1.38-1.38 1.38-3.62 0-5l-8.786-8.785c-.07-.084-.156-.18-.242-.267L68.99 12.52c-.69-.69-1.597-1.042-2.492-1.042-.11 0-.23 0-.34.013H52.473v.025c-.835.05-1.646.387-2.275 1.017l-7.128 7.14-.074.06c-.06.06-.132.122-.194.182L30.325 32.39c-.084.085-.17.183-.243.267L18.585 44.155c-.084.084-.17.18-.242.266L9.666 53.1c-.11.11-.206.218-.278.326 0 0-.012.014-.024.014l-.037.035L4.34 58.46c-.326.326-.592.726-.773 1.174l-.11.314c-.108.326-.157.665-.157 1.004 0 .11 0 .23.012.338v11.316c0 1.937 1.585 3.497 3.52 3.497 1.95 0 3.535-1.572 3.535-3.52V62.416l2.215-2.215v22.33L1.134 93.966c-.69.69-1.03 1.598-1.03 2.493 0 .908.34 1.815 1.03 2.506 1.38 1.38 3.62 1.38 4.998 0l12.478-12.49c.097-.097.194-.205.278-.314.06-.073.12-.157.17-.242.12-.182.23-.376.302-.568.037-.073.06-.146.097-.23.12-.362.182-.75.182-1.138v-11.4H33.76v14.11c0 .98.4 1.853 1.042 2.495.64.64 1.513 1.04 2.492 1.04 1.95 0 3.522-1.586 3.522-3.535V69.048c0-1.947-1.573-3.533-3.522-3.533h-10.59V46.03l2.917-2.917c.048-.048.085-.085.12-.133l6.318-6.317c.085-.084.17-.182.243-.266l3.655-3.655c.085-.073.182-.158.266-.242l10.42-10.42h8.812l-6.196 6.196c-.027.024-.038.036-.062.06z"/><path d="M46.458 46.558h53.437v53.437H46.458z"/><circle cx="37.242" cy="11.486" r="7.059"/></g></svg>