<?xml version="1.0" encoding="UTF-8" standalone="no"?>
<svg
   xmlns:dc="http://purl.org/dc/elements/1.1/"
   xmlns:cc="http://creativecommons.org/ns#"
   xmlns:rdf="http://www.w3.org/1999/02/22-rdf-syntax-ns#"
   xmlns:svg="http://www.w3.org/2000/svg"
   xmlns="http://www.w3.org/2000/svg"
   xmlns:sodipodi="http://sodipodi.sourceforge.net/DTD/sodipodi-0.dtd"
   xmlns:inkscape="http://www.inkscape.org/namespaces/inkscape"
   version="1.1"
   x="0px"
   y="0px"
   viewBox="0 0 100 100"
   enable-background="new 0 0 100 100"
   xml:space="preserve"
   id="svg2"
   inkscape:version="0.91 r"
   sodipodi:docname="i-counsel.svg"
   width="100"
   height="100"><metadata
     id="metadata24"><rdf:RDF><cc:Work
         rdf:about=""><dc:format>image/svg+xml</dc:format><dc:type
           rdf:resource="http://purl.org/dc/dcmitype/StillImage" /><dc:title></dc:title></cc:Work></rdf:RDF></metadata><defs
     id="defs22" /><sodipodi:namedview
     pagecolor="#ffffff"
     bordercolor="#666666"
     borderopacity="1"
     objecttolerance="10"
     gridtolerance="10"
     guidetolerance="10"
     inkscape:pageopacity="0"
     inkscape:pageshadow="2"
     inkscape:window-width="1366"
     inkscape:window-height="744"
     id="namedview20"
     showgrid="false"
     inkscape:zoom="4.550375"
     inkscape:cx="50"
     inkscape:cy="62.5"
     inkscape:window-x="0"
     inkscape:window-y="24"
     inkscape:window-maximized="1"
     inkscape:current-layer="svg2" /><g
     id="g4"
     transform="translate(0.08341957,-0.264)"
     style="fill:#f44336"><path
       d="m 26.926,19.269 c 1.939,0 3.56,-0.636 4.864,-1.908 1.3,-1.274 1.954,-2.878 1.954,-4.818 0,-1.817 -0.654,-3.438 -1.954,-4.862 -1.304,-1.423 -2.925,-2.137 -4.864,-2.137 -0.91,0 -1.773,0.197 -2.589,0.592 -0.821,0.394 -1.546,0.909 -2.184,1.545 -0.636,0.636 -1.137,1.379 -1.497,2.227 -0.365,0.849 -0.547,1.726 -0.547,2.636 0,1.94 0.682,3.544 2.044,4.818 1.363,1.271 2.953,1.907 4.773,1.907 z"
       id="path6"
       inkscape:connector-curvature="0"
       style="fill:#f44336" /><path
       d="M 39.286,23.679 C 38.256,22.982 37.18,22.435 36.059,22.043 34.937,21.648 33.985,21.45 33.197,21.45 l -12.633,0 c -1.032,0 -2.106,0.198 -3.227,0.593 -1.122,0.392 -2.138,0.923 -3.047,1.591 -0.907,0.665 -1.65,1.5 -2.225,2.498 -0.577,1.001 -0.864,2.076 -0.864,3.227 l 0,24.996 c 0,0.727 0.255,1.41 0.773,2.044 0.512,0.639 1.134,0.955 1.864,0.955 0.36,0 0.894,-0.181 1.589,-0.545 0.697,-0.364 1.046,-0.788 1.046,-1.271 l 0,-22.27 c 0,-0.303 0.103,-0.531 0.316,-0.681 0.213,-0.15 0.47,-0.228 0.775,-0.228 0.239,0 0.483,0.061 0.725,0.182 0.244,0.124 0.365,0.362 0.365,0.727 l 0,58.716 c 0,0.849 0.362,1.56 1.089,2.139 0.729,0.574 1.486,0.861 2.272,0.861 0.85,0 1.712,-0.287 2.591,-0.861 0.877,-0.579 1.317,-1.411 1.317,-2.502 l 0,-35.36 c 0.12,-0.06 0.212,-0.119 0.273,-0.181 l 0.545,-0.271 0.091,0 0.091,0 c 0.182,0.059 0.604,0.21 1.274,0.451 l 0,35.722 c 0,0.908 0.375,1.638 1.135,2.182 0.757,0.545 1.559,0.818 2.407,0.818 0.729,0 1.5,-0.229 2.317,-0.682 0.82,-0.453 1.231,-1.166 1.231,-2.136 l 0,-58.717 c 0,-0.18 0.15,-0.408 0.451,-0.679 0.306,-0.273 0.579,-0.41 0.821,-0.41 0.123,0 0.319,0.061 0.592,0.182 0.274,0.124 0.406,0.306 0.406,0.545 l 0,21.724 c 0,0.668 0.306,1.181 0.912,1.543 0.606,0.364 1.148,0.547 1.636,0.547 0.725,0 1.376,-0.228 1.952,-0.682 0.579,-0.453 0.866,-1.075 0.866,-1.863 l 0,-25.452 c 0,-0.967 -0.351,-1.907 -1.048,-2.817 -0.692,-0.907 -1.559,-1.711 -2.589,-2.406 z"
       id="path8"
       inkscape:connector-curvature="0"
       style="fill:#f44336" /><path
       d="m 77.153,74.73 c -0.387,-0.656 -0.975,-0.962 -1.772,-0.921 l -11.683,0.666 c -0.046,0 -0.296,-0.056 -0.748,-0.169 -0.451,-0.116 -0.774,-0.214 -0.967,-0.297 -1.135,-0.264 -2.15,-0.861 -3.049,-1.795 -0.894,-0.93 -1.49,-1.926 -1.782,-2.986 L 52.713,52.841 c -0.128,-0.602 -0.447,-1.076 -0.957,-1.422 -0.512,-0.342 -1.094,-0.497 -1.747,-0.46 -0.937,0.054 -1.606,0.371 -2.021,0.957 -0.411,0.583 -0.593,1.294 -0.543,2.133 l 0.009,0.212 0.028,0.49 0.004,0.07 4.461,28.806 c 0.24,0.969 0.733,1.983 1.472,3.04 0.738,1.058 1.614,2.015 2.621,2.869 1.008,0.854 2.074,1.544 3.204,2.065 1.13,0.522 2.229,0.752 3.305,0.69 L 75.987,91.53 c 0.697,-0.042 1.18,-0.393 1.445,-1.065 0.269,-0.669 0.387,-13.329 0.355,-13.843 -0.032,-0.604 -0.246,-1.235 -0.634,-1.892 z"
       id="path10"
       inkscape:connector-curvature="0"
       style="fill:#f44336" /><path
       d="M 87.3,66.047 C 87.273,65.628 87.11,65.169 86.799,64.67 86.493,64.174 86.114,63.713 85.669,63.296 85.227,62.877 84.739,62.53 84.205,62.255 83.672,61.981 83.18,61.859 82.711,61.884 L 69.975,62.606 65.69,46.42 c -0.314,-1.385 -1.089,-2.438 -2.32,-3.168 -1.239,-0.725 -2.529,-1.051 -3.883,-0.971 -1.819,0.1 -3.264,0.793 -4.34,2.069 -1.076,1.279 -1.559,2.826 -1.458,4.645 l 0.014,0.21 0.036,0.702 0.004,0.068 4.772,18.542 c 0.406,1.384 1.254,2.516 2.544,3.405 1.29,0.885 2.635,1.285 4.034,1.207 l 15.119,-0.856 0.953,16.865 c 0.059,1.073 0.506,1.938 1.34,2.594 0.834,0.652 1.719,0.953 2.648,0.902 0.793,-0.046 1.582,-0.347 2.375,-0.907 0.783,-0.56 1.153,-1.306 1.099,-2.24 L 87.3,66.047 Z"
       id="path12"
       inkscape:connector-curvature="0"
       style="fill:#f44336" /><path
       d="m 56.746,41.004 c 3.907,0.722 7.663,-1.862 8.384,-5.771 0.725,-3.906 -1.861,-7.662 -5.771,-8.383 -3.911,-0.72 -7.662,1.862 -8.382,5.771 -0.727,3.91 1.858,7.663 5.769,8.383 z"
       id="path14"
       inkscape:connector-curvature="0"
       style="fill:#f44336" /></g></svg>