<?xml version="1.0" encoding="UTF-8" standalone="no"?>
<svg
   xmlns:dc="http://purl.org/dc/elements/1.1/"
   xmlns:cc="http://creativecommons.org/ns#"
   xmlns:rdf="http://www.w3.org/1999/02/22-rdf-syntax-ns#"
   xmlns:svg="http://www.w3.org/2000/svg"
   xmlns="http://www.w3.org/2000/svg"
   xmlns:sodipodi="http://sodipodi.sourceforge.net/DTD/sodipodi-0.dtd"
   xmlns:inkscape="http://www.inkscape.org/namespaces/inkscape"
   version="1.1"
   x="0px"
   y="0px"
   viewBox="0 0 100 100"
   enable-background="new 0 0 100 100"
   xml:space="preserve"
   id="svg2"
   inkscape:version="0.91 r"
   sodipodi:docname="i-coach.svg"
   width="100"
   height="100"><metadata
     id="metadata62"><rdf:RDF><cc:Work
         rdf:about=""><dc:format>image/svg+xml</dc:format><dc:type
           rdf:resource="http://purl.org/dc/dcmitype/StillImage" /><dc:title /></cc:Work></rdf:RDF></metadata><defs
     id="defs60" /><sodipodi:namedview
     pagecolor="#ffffff"
     bordercolor="#666666"
     borderopacity="1"
     objecttolerance="10"
     gridtolerance="10"
     guidetolerance="10"
     inkscape:pageopacity="0"
     inkscape:pageshadow="2"
     inkscape:window-width="1366"
     inkscape:window-height="744"
     id="namedview58"
     showgrid="false"
     inkscape:zoom="6.552336"
     inkscape:cx="38.659741"
     inkscape:cy="33.924192"
     inkscape:window-x="0"
     inkscape:window-y="24"
     inkscape:window-maximized="1"
     inkscape:current-layer="svg2" /><g
     display="none"
     id="g4"
     style="display:none"
     transform="translate(0,-25)"><circle
       display="inline"
       cx="29.207001"
       cy="20.747"
       r="6.217"
       id="circle6"
       style="display:inline" /><circle
       display="inline"
       cx="11.902"
       cy="43.783001"
       r="6.217"
       id="circle8"
       style="display:inline" /><rect
       x="17.93"
       y="46.130001"
       transform="matrix(0.7071,0.7071,-0.7071,0.7071,40.9816,-0.454)"
       display="inline"
       width="6.2179999"
       height="6.217"
       id="rect10"
       style="display:inline" /><rect
       x="13.531"
       y="50.525002"
       transform="matrix(0.7071,0.7071,-0.7071,0.7071,42.7979,3.9429)"
       display="inline"
       width="6.2179999"
       height="6.217"
       id="rect12"
       style="display:inline" /><rect
       x="9.1370001"
       y="54.919998"
       transform="matrix(0.7071,0.7071,-0.7071,0.7071,44.6222,8.3396)"
       display="inline"
       width="6.217"
       height="6.2179999"
       id="rect14"
       style="display:inline" /><rect
       x="17.927999"
       y="54.921001"
       transform="matrix(0.707,0.7072,-0.7072,0.707,47.2039,2.1251)"
       display="inline"
       width="6.2179999"
       height="6.217"
       id="rect16"
       style="display:inline" /><rect
       x="13.531"
       y="59.314999"
       transform="matrix(0.7071,0.7071,-0.7071,0.7071,49.0139,6.5177)"
       display="inline"
       width="6.2179999"
       height="6.217"
       id="rect18"
       style="display:inline" /><rect
       x="22.202"
       y="59.195"
       transform="matrix(0.7071,0.7071,-0.7071,0.7071,51.4722,0.3522)"
       display="inline"
       width="6.2189999"
       height="6.217"
       id="rect20"
       style="display:inline" /><rect
       x="26.598"
       y="54.737999"
       transform="matrix(0.7071,0.7071,-0.7071,0.7071,49.6082,-4.062)"
       display="inline"
       width="6.2189999"
       height="6.217"
       id="rect22"
       style="display:inline" /><rect
       x="30.996"
       y="59.133999"
       transform="matrix(0.707,0.7072,-0.7072,0.707,54.0123,-5.8821)"
       display="inline"
       width="6.2179999"
       height="6.217"
       id="rect24"
       style="display:inline" /><rect
       x="35.389999"
       y="63.528999"
       transform="matrix(0.7071,0.7071,-0.7071,0.7071,58.4002,-7.7041)"
       display="inline"
       width="6.2189999"
       height="6.217"
       id="rect26"
       style="display:inline" /><rect
       x="39.787998"
       y="67.925003"
       transform="matrix(0.707,0.7072,-0.7072,0.707,62.8013,-9.5256)"
       display="inline"
       width="6.2179999"
       height="6.217"
       id="rect28"
       style="display:inline" /><rect
       x="17.808001"
       y="63.59"
       transform="matrix(0.7071,0.7071,-0.7071,0.7071,53.2931,4.7475)"
       display="inline"
       width="6.217"
       height="6.2179999"
       id="rect30"
       style="display:inline" /><rect
       x="22.174"
       y="67.956001"
       transform="matrix(0.7071,0.7071,-0.7071,0.7071,57.6516,2.9346)"
       display="inline"
       width="6.2179999"
       height="6.217"
       id="rect32"
       style="display:inline" /><rect
       x="26.528"
       y="72.319"
       transform="matrix(0.7071,0.7071,-0.7071,0.7071,62.0158,1.1361)"
       display="inline"
       width="6.2179999"
       height="6.217"
       id="rect34"
       style="display:inline" /><rect
       x="22.172001"
       y="76.679001"
       transform="matrix(0.7069,0.7073,-0.7073,0.7069,63.8433,5.5033)"
       display="inline"
       width="6.2189999"
       height="6.217"
       id="rect36"
       style="display:inline" /><rect
       x="4.7410002"
       y="59.318001"
       transform="matrix(0.7069,0.7073,-0.7073,0.7069,46.4548,12.7438)"
       display="inline"
       width="6.2189999"
       height="6.2160001"
       id="rect38"
       style="display:inline" /><rect
       x="22.323"
       y="41.731998"
       transform="matrix(0.7071,0.7071,-0.7071,0.7071,39.1562,-4.8498)"
       display="inline"
       width="6.2179999"
       height="6.217"
       id="rect40"
       style="display:inline" /><rect
       x="26.688999"
       y="37.366001"
       transform="matrix(0.7071,0.7071,-0.7071,0.7071,37.3471,-9.2157)"
       display="inline"
       width="6.2179999"
       height="6.217"
       id="rect42"
       style="display:inline" /></g><g
     id="g44"
     transform="translate(-2.2888184e-7,-2.213625)"
     style="fill:#f44336;fill-opacity:1"><circle
       cx="12.721"
       cy="36.051998"
       r="7.059"
       id="circle46"
       style="fill:#f44336;fill-opacity:1" /><path
       d="m 53.198,28.337 -5.713,5.712 c -0.169,0.169 -0.314,0.339 -0.423,0.533 -0.279,0.387 -0.448,0.811 -0.533,1.259 -0.048,0.23 -0.072,0.472 -0.072,0.714 0,0.23 0.023,0.448 0.06,0.666 l 0.568,1.331 c 0.11,0.182 0.243,0.339 0.399,0.497 l 0.013,0 c 0.411,0.424 0.908,0.714 1.439,0.871 0.134,0.037 0.266,0.073 0.411,0.097 0.049,0 0.097,0.013 0.146,0.024 0.134,0.024 0.266,0.037 0.411,0.024 0.025,0.012 0.062,0.012 0.085,0.012 l 0.217,0 13.894,0 c 0.969,0 1.864,-0.399 2.493,-1.029 0.642,-0.642 1.041,-1.525 1.041,-2.493 0,-1.948 -1.586,-3.534 -3.534,-3.534 l -5.591,0 10.492,-10.493 3.751,3.751 0.025,0.024 c 0.072,0.085 0.157,0.182 0.242,0.267 L 85.51,39.047 c 0.69,0.689 1.587,1.041 2.494,1.041 0.907,0 1.804,-0.351 2.492,-1.041 1.381,-1.38 1.381,-3.619 0,-4.999 L 81.71,25.262 C 81.639,25.178 81.554,25.081 81.468,24.995 L 68.991,12.52 c -0.69,-0.69 -1.598,-1.042 -2.493,-1.042 -0.109,0 -0.229,0 -0.339,0.013 l -13.687,0 0,0.024 c -0.835,0.049 -1.646,0.387 -2.275,1.017 l -7.128,7.14 -0.073,0.061 c -0.06,0.06 -0.132,0.121 -0.194,0.181 L 30.325,32.391 c -0.084,0.084 -0.17,0.182 -0.243,0.266 L 18.585,44.155 c -0.084,0.084 -0.169,0.181 -0.242,0.266 l -8.677,8.677 c -0.109,0.109 -0.206,0.218 -0.278,0.326 0,0 -0.012,0.014 -0.024,0.014 C 9.351,53.45 9.351,53.45 9.327,53.473 L 4.341,58.459 C 4.014,58.786 3.748,59.186 3.567,59.634 3.53,59.742 3.495,59.839 3.458,59.948 3.349,60.274 3.3,60.613 3.3,60.952 c 0,0.109 0,0.229 0.012,0.338 l 0,6.73 c 0,0.012 0,0.012 0,0.023 l 0,4.538 c 0,0.013 0,0.013 0,0.024 0,1.937 1.585,3.497 3.521,3.497 1.949,0 3.534,-1.572 3.534,-3.521 l 0,-10.164 2.215,-2.215 0,22.329 -11.448,11.436 c -0.689,0.689 -1.029,1.598 -1.029,2.493 0,0.908 0.339,1.815 1.029,2.506 1.38,1.379 3.619,1.379 4.998,0 L 18.61,86.476 c 0.097,-0.097 0.194,-0.205 0.278,-0.314 0.061,-0.073 0.121,-0.157 0.169,-0.242 0.121,-0.182 0.23,-0.376 0.303,-0.568 0.037,-0.073 0.061,-0.146 0.097,-0.23 0.121,-0.362 0.182,-0.75 0.182,-1.138 l 0,-11.4 14.123,0 0,14.111 c 0,0.98 0.399,1.852 1.042,2.494 0.641,0.64 1.513,1.04 2.492,1.04 1.949,0 3.522,-1.585 3.522,-3.534 l 0,-17.647 c 0,-1.947 -1.573,-3.533 -3.522,-3.533 l -10.59,0 0,-19.485 2.917,-2.917 c 0.048,-0.048 0.085,-0.085 0.121,-0.133 l 6.317,-6.317 c 0.084,-0.084 0.169,-0.182 0.242,-0.266 l 3.655,-3.655 c 0.085,-0.073 0.182,-0.158 0.266,-0.242 l 10.421,-10.42 8.811,0 -6.196,6.196 c -0.027,0.024 -0.038,0.036 -0.062,0.061 z"
       id="path48"
       inkscape:connector-curvature="0"
       style="fill:#f44336;fill-opacity:1" /><rect
       x="46.458"
       y="46.557999"
       width="53.437"
       height="53.437"
       id="rect50"
       style="fill:#f44336;fill-opacity:1" /><circle
       cx="37.242001"
       cy="11.486"
       r="7.059"
       id="circle52"
       style="fill:#f44336;fill-opacity:1" /></g></svg>