<svg xmlns="http://www.w3.org/2000/svg" xmlns:xlink="http://www.w3.org/1999/xlink" version="1.1" x="0px" y="0px" viewBox="0 0 100 125" enable-background="new 0 0 100 100" xml:space="preserve"><g display="none"><circle display="inline" cx="29.207" cy="20.747" r="6.217"/><circle display="inline" cx="11.902" cy="43.783" r="6.217"/><rect x="17.93" y="46.13" transform="matrix(0.7071 0.7071 -0.7071 0.7071 40.9816 -0.454)" display="inline" width="6.218" height="6.217"/><rect x="13.531" y="50.525" transform="matrix(0.7071 0.7071 -0.7071 0.7071 42.7979 3.9429)" display="inline" width="6.218" height="6.217"/><rect x="9.137" y="54.92" transform="matrix(0.7071 0.7071 -0.7071 0.7071 44.6222 8.3396)" display="inline" width="6.217" height="6.218"/><rect x="17.928" y="54.921" transform="matrix(0.707 0.7072 -0.7072 0.707 47.2039 2.1251)" display="inline" width="6.218" height="6.217"/><rect x="13.531" y="59.315" transform="matrix(0.7071 0.7071 -0.7071 0.7071 49.0139 6.5177)" display="inline" width="6.218" height="6.217"/><rect x="22.202" y="59.195" transform="matrix(0.7071 0.7071 -0.7071 0.7071 51.4722 0.3522)" display="inline" width="6.219" height="6.217"/><rect x="26.598" y="54.738" transform="matrix(0.7071 0.7071 -0.7071 0.7071 49.6082 -4.062)" display="inline" width="6.219" height="6.217"/><rect x="30.996" y="59.134" transform="matrix(0.707 0.7072 -0.7072 0.707 54.0123 -5.8821)" display="inline" width="6.218" height="6.217"/><rect x="35.39" y="63.529" transform="matrix(0.7071 0.7071 -0.7071 0.7071 58.4002 -7.7041)" display="inline" width="6.219" height="6.217"/><rect x="39.788" y="67.925" transform="matrix(0.707 0.7072 -0.7072 0.707 62.8013 -9.5256)" display="inline" width="6.218" height="6.217"/><rect x="17.808" y="63.59" transform="matrix(0.7071 0.7071 -0.7071 0.7071 53.2931 4.7475)" display="inline" width="6.217" height="6.218"/><rect x="22.174" y="67.956" transform="matrix(0.7071 0.7071 -0.7071 0.7071 57.6516 2.9346)" display="inline" width="6.218" height="6.217"/><rect x="26.528" y="72.319" transform="matrix(0.7071 0.7071 -0.7071 0.7071 62.0158 1.1361)" display="inline" width="6.218" height="6.217"/><rect x="22.172" y="76.679" transform="matrix(0.7069 0.7073 -0.7073 0.7069 63.8433 5.5033)" display="inline" width="6.219" height="6.217"/><rect x="4.741" y="59.318" transform="matrix(0.7069 0.7073 -0.7073 0.7069 46.4548 12.7438)" display="inline" width="6.219" height="6.216"/><rect x="22.323" y="41.732" transform="matrix(0.7071 0.7071 -0.7071 0.7071 39.1562 -4.8498)" display="inline" width="6.218" height="6.217"/><rect x="26.689" y="37.366" transform="matrix(0.7071 0.7071 -0.7071 0.7071 37.3471 -9.2157)" display="inline" width="6.218" height="6.217"/></g><g><circle cx="12.721" cy="36.052" r="7.059"/><path d="M53.198,28.337l-5.713,5.712c-0.169,0.169-0.314,0.339-0.423,0.533c-0.279,0.387-0.448,0.811-0.533,1.259   c-0.048,0.23-0.072,0.472-0.072,0.714c0,0.23,0.023,0.448,0.06,0.666l0.568,1.331c0.11,0.182,0.243,0.339,0.399,0.497h0.013   c0.411,0.424,0.908,0.714,1.439,0.871c0.134,0.037,0.266,0.073,0.411,0.097c0.049,0,0.097,0.013,0.146,0.024   c0.134,0.024,0.266,0.037,0.411,0.024c0.025,0.012,0.062,0.012,0.085,0.012h0.217h13.894c0.969,0,1.864-0.399,2.493-1.029   c0.642-0.642,1.041-1.525,1.041-2.493c0-1.948-1.586-3.534-3.534-3.534h-5.591l10.492-10.493l3.751,3.751l0.025,0.024   c0.072,0.085,0.157,0.182,0.242,0.267L85.51,39.047c0.69,0.689,1.587,1.041,2.494,1.041s1.804-0.351,2.492-1.041   c1.381-1.38,1.381-3.619,0-4.999l-8.786-8.786c-0.071-0.084-0.156-0.181-0.242-0.267L68.991,12.52   c-0.69-0.69-1.598-1.042-2.493-1.042c-0.109,0-0.229,0-0.339,0.013H52.472v0.024c-0.835,0.049-1.646,0.387-2.275,1.017l-7.128,7.14   l-0.073,0.061c-0.06,0.06-0.132,0.121-0.194,0.181L30.325,32.391c-0.084,0.084-0.17,0.182-0.243,0.266L18.585,44.155   c-0.084,0.084-0.169,0.181-0.242,0.266l-8.677,8.677c-0.109,0.109-0.206,0.218-0.278,0.326c0,0-0.012,0.014-0.024,0.014   c-0.013,0.012-0.013,0.012-0.037,0.035l-4.986,4.986c-0.327,0.327-0.593,0.727-0.774,1.175c-0.037,0.108-0.072,0.205-0.109,0.314   C3.349,60.274,3.3,60.613,3.3,60.952c0,0.109,0,0.229,0.012,0.338v6.73c0,0.012,0,0.012,0,0.023v4.538c0,0.013,0,0.013,0,0.024   c0,1.937,1.585,3.497,3.521,3.497c1.949,0,3.534-1.572,3.534-3.521V62.417l2.215-2.215v22.329L1.134,93.967   c-0.689,0.689-1.029,1.598-1.029,2.493c0,0.908,0.339,1.815,1.029,2.506c1.38,1.379,3.619,1.379,4.998,0l12.478-12.49   c0.097-0.097,0.194-0.205,0.278-0.314c0.061-0.073,0.121-0.157,0.169-0.242c0.121-0.182,0.23-0.376,0.303-0.568   c0.037-0.073,0.061-0.146,0.097-0.23c0.121-0.362,0.182-0.75,0.182-1.138v-11.4h14.123v14.111c0,0.98,0.399,1.852,1.042,2.494   c0.641,0.64,1.513,1.04,2.492,1.04c1.949,0,3.522-1.585,3.522-3.534V69.048c0-1.947-1.573-3.533-3.522-3.533H26.706V46.03   l2.917-2.917c0.048-0.048,0.085-0.085,0.121-0.133l6.317-6.317c0.084-0.084,0.169-0.182,0.242-0.266l3.655-3.655   c0.085-0.073,0.182-0.158,0.266-0.242l10.421-10.42h8.811l-6.196,6.196C53.233,28.3,53.222,28.312,53.198,28.337z"/><rect x="46.458" y="46.558" width="53.437" height="53.437"/><circle cx="37.242" cy="11.486" r="7.059"/></g><text x="0" y="115" fill="#000000" font-size="5px" font-weight="bold" font-family="'Helvetica Neue', Helvetica, Arial-Unicode, Arial, Sans-serif">Created by gilbert bages</text><text x="0" y="120" fill="#000000" font-size="5px" font-weight="bold" font-family="'Helvetica Neue', Helvetica, Arial-Unicode, Arial, Sans-serif">from the Noun Project</text></svg>