<svg xmlns="http://www.w3.org/2000/svg" viewBox="0 0 100 100" width="100" height="100"><g fill="#f44336"><path d="M27.01 19.005c1.938 0 3.56-.636 4.863-1.908 1.3-1.274 1.954-2.878 1.954-4.818 0-1.818-.654-3.44-1.954-4.863C30.57 5.994 28.948 5.28 27.01 5.28c-.91 0-1.774.197-2.59.592-.82.394-1.546.91-2.184 1.545-.636.636-1.137 1.38-1.497 2.227-.366.85-.548 1.726-.548 2.636 0 1.94.682 3.544 2.044 4.818 1.363 1.27 2.953 1.907 4.773 1.907zM39.37 23.415c-1.03-.697-2.107-1.244-3.228-1.636-1.122-.396-2.074-.594-2.862-.594H20.647c-1.032 0-2.106.198-3.227.593-1.122.39-2.138.922-3.047 1.59-.907.665-1.65 1.5-2.225 2.498-.577 1-.864 2.076-.864 3.227V54.09c0 .728.255 1.41.773 2.045.512.64 1.134.955 1.864.955.36 0 .895-.18 1.59-.545.697-.364 1.046-.788 1.046-1.27v-22.27c0-.304.103-.532.316-.682.213-.15.47-.228.775-.228.24 0 .483.06.725.182.244.124.365.362.365.727V91.72c0 .85.362 1.56 1.09 2.14.728.573 1.485.86 2.27.86.85 0 1.713-.287 2.592-.86.876-.58 1.316-1.412 1.316-2.503v-35.36c.12-.06.212-.12.273-.18l.544-.272h.182c.182.06.604.21 1.274.45V91.72c0 .908.375 1.638 1.135 2.182.757.545 1.56.818 2.407.818.73 0 1.5-.23 2.317-.682.82-.453 1.23-1.166 1.23-2.136V33.183c0-.18.15-.408.45-.68.307-.272.58-.41.822-.41.123 0 .32.062.592.183.274.124.406.306.406.545v21.725c0 .668.306 1.18.912 1.543.606.364 1.148.547 1.636.547.725 0 1.376-.228 1.952-.682.58-.453.866-1.075.866-1.863V28.638c0-.967-.35-1.907-1.048-2.817-.692-.906-1.56-1.71-2.59-2.405zM77.236 74.466c-.387-.656-.975-.962-1.772-.92l-11.683.665c-.045 0-.295-.055-.747-.168-.45-.116-.774-.214-.967-.297-1.135-.264-2.15-.86-3.05-1.795-.893-.93-1.49-1.926-1.78-2.986l-4.44-16.387c-.128-.602-.447-1.076-.957-1.422-.513-.342-1.095-.497-1.748-.46-.937.054-1.606.37-2.02.957-.412.583-.594 1.294-.544 2.133l.01.212.027.49.004.07 4.46 28.806c.24.97.733 1.983 1.472 3.04.738 1.058 1.614 2.015 2.62 2.87 1.01.853 2.075 1.543 3.205 2.064 1.13.522 2.23.752 3.305.69l13.438-.76c.697-.043 1.18-.394 1.445-1.066.27-.668.387-13.328.355-13.842-.032-.604-.246-1.235-.634-1.892z"/><path d="M87.383 65.783c-.027-.42-.19-.878-.5-1.377-.307-.496-.686-.957-1.13-1.374-.443-.42-.93-.766-1.465-1.04-.533-.275-1.025-.397-1.494-.372l-12.736.722-4.285-16.186c-.314-1.385-1.09-2.438-2.32-3.168-1.24-.725-2.53-1.05-3.883-.97-1.82.1-3.264.792-4.34 2.068-1.076 1.28-1.56 2.826-1.458 4.645l.014.21.036.703.004.068 4.772 18.543c.406 1.384 1.254 2.516 2.544 3.405 1.29.885 2.635 1.285 4.034 1.207l15.12-.856.952 16.864c.06 1.073.506 1.938 1.34 2.594.834.652 1.72.953 2.648.902.793-.046 1.582-.347 2.375-.907.784-.56 1.154-1.306 1.1-2.24l-1.327-23.44zM56.83 40.74c3.906.722 7.662-1.862 8.383-5.77.725-3.907-1.86-7.663-5.77-8.384-3.912-.72-7.663 1.862-8.383 5.77-.727 3.91 1.858 7.664 5.77 8.384z"/></g></svg>