<svg xmlns="http://www.w3.org/2000/svg" viewBox="0 0 100 100" width="100" height="100"><g transform="translate(0 2.43)" fill="#f44336"><path d="M68.056 77.083V68.75H31.944v8.333H62.5M45.833 56.25c0-.768-.62-1.39-1.39-1.39-.612 0-1.116.403-1.3.955l-.017-.005-2.46 7.384h-7.333c-.768 0-1.39.62-1.39 1.39 0 .767.622 1.388 1.39 1.388h9.334l3.094-9.282-.016-.006c.05-.138.09-.28.09-.434z"/><path d="M36.11 54.86H24.147l-3.503-9.583-.02.007c-.53-1.69-2.09-2.924-3.956-2.924-.67 0-1.295.174-1.856.455l-.006-.014C5.257 47.575 0 58.27 0 72.918c0 2.3 1.865 4.166 4.167 4.166h12.5v13.89c0 2.3 1.865 4.166 4.167 4.166 2.302 0 4.166-1.867 4.166-4.168V72.917c0-2.302-1.865-4.167-4.167-4.167H8.51c.506-5.99 2.274-12.45 6.963-16.456l4.265 6.587.01-.004c.457.91 1.388 1.54 2.475 1.54h13.89c1.533 0 2.776-1.243 2.776-2.777 0-1.535-1.245-2.78-2.78-2.78z"/><circle r="6.25" cy="39.583" cx="27.778"/><path d="M66.667 63.194h-7.333l-2.46-7.384-.017.005c-.185-.552-.688-.954-1.302-.954-.768 0-1.39.622-1.39 1.39 0 .154.04.296.09.434l-.018.006 3.094 9.282h9.336c.768 0 1.39-.62 1.39-1.39 0-.767-.62-1.388-1.39-1.388z"/><circle r="6.25" cy="39.583" cx="72.223"/><path d="M85.197 42.8l-.007.015c-.562-.28-1.188-.455-1.857-.455-1.864 0-3.426 1.234-3.956 2.924l-.02-.007-3.503 9.584H63.89c-1.535 0-2.778 1.244-2.778 2.778s1.243 2.778 2.777 2.778h13.888c1.087 0 2.02-.63 2.476-1.54l.01.004 4.266-6.587c4.688 4.006 6.456 10.467 6.962 16.456H79.167c-2.302 0-4.167 1.864-4.167 4.166V90.97c0 2.303 1.865 4.168 4.167 4.168 2.302 0 4.166-1.865 4.166-4.167V77.084h12.5c2.302 0 4.167-1.865 4.167-4.166 0-14.647-5.257-25.343-14.803-30.116zM50 29.167c-8.042 0-14.583-6.542-14.583-14.583C35.417 6.544 41.957 0 50 0c8.042 0 14.583 6.542 14.583 14.583 0 8.04-6.54 14.584-14.583 14.584zm0-26.39c-6.51 0-11.806 5.296-11.806 11.806 0 6.51 5.297 11.806 11.806 11.806 6.51 0 11.806-5.297 11.806-11.807 0-6.51-5.297-11.805-11.806-11.805z"/><path d="M56.944 9.028c0-.768-.62-1.39-1.39-1.39-.385 0-.73.158-.982.41l-3.184 3.183V6.25c0-.768-.62-1.39-1.39-1.39-.767 0-1.388.623-1.388 1.39v8.333c0 .768.62 1.39 1.39 1.39.384 0 .73-.158.982-.41l5.553-5.55c.253-.253.41-.6.41-.985z"/></g></svg>