<svg xmlns="http://www.w3.org/2000/svg" viewBox="0 0 100 100" width="100" height="100"><g transform="matrix(1.02214 0 0 1.02214 -1.022 .104)" fill="#f44336"><circle r="10.374" cy="34.505" cx="24.507"/><path d="M9 73.5v-11h2v11h27v-11h2v11h8V60.686c0-6.89-3.532-13.643-11.593-13.643l-23.356-.01C5.706 47.034 1 53.024 1 60.494V73.5h8z"/><circle r="10.374" cy="34.505" cx="75.34"/><path d="M59.834 73.5v-11h2v11h27v-11h2v11h8V60.686c0-6.89-3.533-13.643-11.594-13.643l-23.355-.01c-7.346 0-12.05 5.99-12.05 13.46V73.5h8zM51.265 41.76c.28.188.606.28.974.28.367 0 .752-.19 1.15-.574l.975-.95c.895-.87 1.768-1.745 2.62-2.625.137-.14.27-.282.408-.425 0 0 .77-.556.77-1.474 0-.82-.77-1.576-.77-1.576L57 34.007c-.856-.888-1.735-1.77-2.636-2.644l-1.046-1.01c-.352-.344-.692-.516-1.02-.516h-.12c-.25 0-.452.033-.61.093-.155.063-.31.157-.467.283-.165.132-.31.282-.445.446-.125.155-.22.31-.28.47-.064.155-.095.35-.095.586 0 .233.03.43.095.586.068.163.178.337.326.515.15.188.355.404.61.646l.622.598H45.69c-.382 0-.683.064-.903.19-.218.132-.39.257-.517.375-.117.125-.24.297-.375.516-.124.22-.188.485-.188.8 0 .312.064.577.188.795.134.22.258.393.375.52.127.116.3.242.517.374.22.123.52.187.903.187h6.15l-1.01 1.115c-.368.407-.55.793-.55 1.16 0 .36.094.68.278.963.2.274.433.51.707.705"/></g></svg>