<?xml version="1.0" encoding="UTF-8" standalone="no"?>
<svg
   xmlns:dc="http://purl.org/dc/elements/1.1/"
   xmlns:cc="http://creativecommons.org/ns#"
   xmlns:rdf="http://www.w3.org/1999/02/22-rdf-syntax-ns#"
   xmlns:svg="http://www.w3.org/2000/svg"
   xmlns="http://www.w3.org/2000/svg"
   xmlns:sodipodi="http://sodipodi.sourceforge.net/DTD/sodipodi-0.dtd"
   xmlns:inkscape="http://www.inkscape.org/namespaces/inkscape"
   version="1.1"
   x="0px"
   y="0px"
   viewBox="0 0 100 100"
   enable-background="new 0 0 100 100"
   xml:space="preserve"
   id="svg2"
   inkscape:version="0.91 r"
   sodipodi:docname="i-mentor.svg"
   width="100"
   height="100"><metadata
     id="metadata122"><rdf:RDF><cc:Work
         rdf:about=""><dc:format>image/svg+xml</dc:format><dc:type
           rdf:resource="http://purl.org/dc/dcmitype/StillImage" /><dc:title /></cc:Work></rdf:RDF></metadata><defs
     id="defs120" /><sodipodi:namedview
     pagecolor="#ffffff"
     bordercolor="#666666"
     borderopacity="1"
     objecttolerance="10"
     gridtolerance="10"
     guidetolerance="10"
     inkscape:pageopacity="0"
     inkscape:pageshadow="2"
     inkscape:window-width="1366"
     inkscape:window-height="744"
     id="namedview118"
     showgrid="false"
     inkscape:zoom="8.1178016"
     inkscape:cx="33.524951"
     inkscape:cy="42.693505"
     inkscape:window-x="0"
     inkscape:window-y="24"
     inkscape:window-maximized="1"
     inkscape:current-layer="svg2" /><g
     id="g4250"
     transform="translate(0.083,1.1844993)"
     style="fill:#e53935;fill-opacity:1"><circle
       id="circle104"
       r="10.374"
       cy="34.505001"
       cx="24.507"
       style="fill:#e53935;fill-opacity:1" /><path
       id="path106"
       d="m 9,73.5 0,-11 2,0 0,11 27,0 0,-11 2,0 0,11 8,0 0,-12.814 C 48,53.795 44.468,47.043 36.407,47.043 L 13.051,47.034 C 5.705,47.034 1,53.023 1,60.494 l 0,13.006 8,0 z"
       inkscape:connector-curvature="0"
       style="fill:#e53935;fill-opacity:1" /><circle
       id="circle108"
       r="10.374"
       cy="34.505001"
       cx="75.339996"
       style="fill:#e53935;fill-opacity:1" /><path
       id="path110"
       d="m 59.834,73.5 0,-11 2,0 0,11 27,0 0,-11 2,0 0,11 8,0 0,-12.814 c 0,-6.891 -3.533,-13.643 -11.594,-13.643 L 63.885,47.034 c -7.346,0 -12.051,5.989 -12.051,13.46 l 0,13.006 8,0 z"
       inkscape:connector-curvature="0"
       style="fill:#e53935;fill-opacity:1" /><path
       id="path112"
       d="m 51.265,41.76 c 0.281,0.188 0.606,0.281 0.974,0.281 0.368,0 0.753,-0.191 1.15,-0.575 l 0.976,-0.951 c 0.895,-0.869 1.768,-1.744 2.619,-2.624 0.138,-0.142 0.272,-0.283 0.409,-0.426 0,0 0.769,-0.556 0.769,-1.474 0,-0.82 -0.769,-1.577 -0.769,-1.577 -0.132,-0.135 -0.262,-0.271 -0.394,-0.407 -0.855,-0.888 -1.734,-1.769 -2.635,-2.644 l -1.046,-1.01 c -0.352,-0.344 -0.692,-0.516 -1.019,-0.516 l -0.12,0 c -0.25,0 -0.453,0.033 -0.61,0.093 -0.156,0.063 -0.312,0.157 -0.468,0.283 -0.166,0.132 -0.312,0.282 -0.446,0.446 -0.125,0.156 -0.22,0.311 -0.28,0.47 -0.064,0.156 -0.095,0.351 -0.095,0.587 0,0.233 0.03,0.43 0.095,0.586 0.068,0.163 0.178,0.337 0.326,0.515 0.148,0.188 0.354,0.404 0.61,0.646 l 0.621,0.598 -6.242,0 c -0.382,0 -0.683,0.063 -0.903,0.188 -0.218,0.133 -0.389,0.258 -0.517,0.376 -0.117,0.125 -0.241,0.297 -0.375,0.516 -0.124,0.22 -0.188,0.484 -0.188,0.798 0,0.313 0.064,0.578 0.188,0.796 0.134,0.221 0.258,0.393 0.375,0.519 0.127,0.117 0.299,0.243 0.517,0.375 0.221,0.124 0.521,0.188 0.903,0.188 l 6.15,0 -1.011,1.115 c -0.367,0.407 -0.55,0.793 -0.55,1.16 0,0.36 0.095,0.681 0.279,0.963 0.199,0.274 0.433,0.509 0.707,0.705"
       inkscape:connector-curvature="0"
       style="fill:#e53935;fill-opacity:1" /></g></svg>