<svg xmlns="http://www.w3.org/2000/svg" viewBox="0 0 99.999998 99.999998" width="100" height="100"><g fill="#f44336"><path d="M21.642 48.828c4.15 0 7.51-3.36 7.51-7.51 0-4.124-3.36-7.483-7.51-7.483-4.126 0-7.485 3.36-7.485 7.484.002 4.15 3.36 7.508 7.485 7.508z"/><path d="M37.138 23.842V47.08l-7.165 3.435-2.748-.005H16.283l-4.72.008c-1.46-.126-2.875.96-3.383 2.407L0 76.158h7.468l4.095-11.632v11.632h20.265l-.007-18.745c.075-.03.15-.046.225-.08l5.094-2.443v6.587H100V23.842H37.138zm59.14 33.913H40.86v-4.648l17.367-8.323c1.637-.786 2.326-2.75 1.54-4.386l-.206-.423c-.785-1.636-2.747-2.325-4.384-1.54L40.86 45.298V27.563H96.28v30.192z"/></g></svg>