<?xml version="1.0" encoding="UTF-8" standalone="no"?>
<svg
   xmlns:dc="http://purl.org/dc/elements/1.1/"
   xmlns:cc="http://creativecommons.org/ns#"
   xmlns:rdf="http://www.w3.org/1999/02/22-rdf-syntax-ns#"
   xmlns:svg="http://www.w3.org/2000/svg"
   xmlns="http://www.w3.org/2000/svg"
   xmlns:sodipodi="http://sodipodi.sourceforge.net/DTD/sodipodi-0.dtd"
   xmlns:inkscape="http://www.inkscape.org/namespaces/inkscape"
   version="1.1"
   x="0px"
   y="0px"
   viewBox="0 0 99.999998 99.999998"
   enable-background="new 0 0 99.997 93.15"
   xml:space="preserve"
   id="svg2"
   inkscape:version="0.91 r"
   sodipodi:docname="i-training.svg"
   width="100"
   height="100"><metadata
     id="metadata14"><rdf:RDF><cc:Work
         rdf:about=""><dc:format>image/svg+xml</dc:format><dc:type
           rdf:resource="http://purl.org/dc/dcmitype/StillImage" /><dc:title /></cc:Work></rdf:RDF></metadata><defs
     id="defs12" /><sodipodi:namedview
     pagecolor="#ffffff"
     bordercolor="#666666"
     borderopacity="1"
     objecttolerance="10"
     gridtolerance="10"
     guidetolerance="10"
     inkscape:pageopacity="0"
     inkscape:pageshadow="2"
     inkscape:window-width="1366"
     inkscape:window-height="744"
     id="namedview10"
     showgrid="false"
     inkscape:zoom="13.072144"
     inkscape:cx="22.846294"
     inkscape:cy="37.394336"
     inkscape:window-x="0"
     inkscape:window-y="24"
     inkscape:window-maximized="1"
     inkscape:current-layer="svg2" /><g
     id="g4150"
     transform="translate(0.0015,-0.2)"
     style="fill:#e53935;fill-opacity:1"><path
       id="path6"
       d="m 21.64,49.028 c 4.15,0 7.509,-3.359 7.509,-7.509 0,-4.125 -3.358,-7.484 -7.509,-7.484 -4.126,0 -7.485,3.359 -7.485,7.484 0.002,4.151 3.361,7.509 7.485,7.509 z"
       inkscape:connector-curvature="0"
       style="fill:#e53935;fill-opacity:1" /><path
       id="path8"
       d="m 37.136,24.042 0,23.238 -7.165,3.435 -2.748,-0.005 -10.942,0 -4.72,0.008 c -1.46,-0.126 -2.875,0.961 -3.383,2.407 l -8.18,23.233 7.468,0 4.095,-11.632 0,11.632 20.265,0 -0.007,-18.745 c 0.074,-0.029 0.15,-0.046 0.224,-0.081 l 5.094,-2.442 0,6.587 62.862,0 0,-37.635 -62.863,0 z m 59.141,33.913 -55.418,0 0,-4.648 17.367,-8.323 c 1.637,-0.786 2.326,-2.75 1.539,-4.386 L 59.56,40.175 C 58.774,38.539 56.812,37.85 55.175,38.636 l -14.316,6.861 0,-17.734 55.418,0 0,30.192 z"
       inkscape:connector-curvature="0"
       style="fill:#e53935;fill-opacity:1" /></g></svg>