<?xml version="1.0" encoding="UTF-8" standalone="no"?>
<svg
   xmlns:sketch="http://www.bohemiancoding.com/sketch/ns"
   xmlns:dc="http://purl.org/dc/elements/1.1/"
   xmlns:cc="http://creativecommons.org/ns#"
   xmlns:rdf="http://www.w3.org/1999/02/22-rdf-syntax-ns#"
   xmlns:svg="http://www.w3.org/2000/svg"
   xmlns="http://www.w3.org/2000/svg"
   xmlns:sodipodi="http://sodipodi.sourceforge.net/DTD/sodipodi-0.dtd"
   xmlns:inkscape="http://www.inkscape.org/namespaces/inkscape"
   width="512"
   height="512"
   viewBox="0 0 512 512"
   version="1.1"
   id="svg2"
   inkscape:version="0.91 r"
   sodipodi:docname="swift.svg">
  <metadata
     id="metadata19">
    <rdf:RDF>
      <cc:Work
         rdf:about="">
        <dc:format>image/svg+xml</dc:format>
        <dc:type
           rdf:resource="http://purl.org/dc/dcmitype/StillImage" />
        <dc:title>Swift logo</dc:title>
      </cc:Work>
    </rdf:RDF>
  </metadata>
  <sodipodi:namedview
     pagecolor="#ffffff"
     bordercolor="#666666"
     borderopacity="1"
     objecttolerance="10"
     gridtolerance="10"
     guidetolerance="10"
     inkscape:pageopacity="0"
     inkscape:pageshadow="2"
     inkscape:window-width="1366"
     inkscape:window-height="744"
     id="namedview17"
     showgrid="false"
     inkscape:zoom="0.69410684"
     inkscape:cx="6.2117515"
     inkscape:cy="144.95922"
     inkscape:window-x="0"
     inkscape:window-y="24"
     inkscape:window-maximized="1"
     inkscape:current-layer="svg2" />
  <!-- Generator: Sketch 3.3.1 (12005) - http://www.bohemiancoding.com/sketch -->
  <title
     id="title4">Swift logo</title>
  <desc
     id="desc6">Created with Sketch.</desc>
  <defs
     id="defs8">
    <linearGradient
       x1="180.48871"
       y1="1.2685826e-08"
       x2="180.48871"
       y2="360.97742"
       id="linearGradient-1"
       gradientTransform="scale(1.0641602,0.93970817)"
       gradientUnits="userSpaceOnUse">
      <stop
         stop-color="#FEAC3C"
         offset="0%"
         id="stop11" />
      <stop
         stop-color="#FF0028"
         offset="100%"
         id="stop13" />
    </linearGradient>
  </defs>
  <g
     id="Page-1"
     sketch:type="MSPage"
     style="fill:none;fill-rule:evenodd;stroke:none;stroke-width:1"
     transform="matrix(1.3328551,0,0,1.3328551,-5.2882735e-6,29.938823)">
    <path
       d="M 236.5,1.1920974e-8 C 399.7,105.6 349.79999,238.4 349.79999,238.4 c 0,0 17.6,20 26.4,44.8 8.8,24.8 8.70304,55.2 7.10304,56 -1.6,0.8 -22.22969,-34.4 -58.30304,-34.4 -36.07334,0 -54.40001,34.4 -118.4,34.4 C 62.497774,339.2 0,221 0,221 c 0,0 63.4,45.4 129.80001,43.8 66.4,-1.6 84.79998,-20.8 84.79998,-20.8 0,0 -29.68967,-24.84328 -80.79999,-74.8 C 82.689676,119.24328 34.6,50.4 34.6,50.4 c 0,0 77.04543,61.06229 101.75811,79.02426 24.71269,17.96197 49.42537,34.24 49.42537,34.24 0,0 -23.93392,-25.82032 -40.78348,-46.58884 C 128.15044,96.30689 85,33.6 85,33.6 c 0,0 66.18053,59.75082 96.29026,83.47541 C 211.4,140.8 269,180.8 269,180.8 269,180.8 303.7,101.6 236.5,1.1920974e-8 Z"
       id="Swift-logo"
       sketch:type="MSShapeGroup"
       inkscape:connector-curvature="0"
       style="fill:url(#linearGradient-1)" />
  </g>
</svg>
