<?xml version="1.0" encoding="UTF-8" standalone="no"?>
<!-- Created with Inkscape (http://www.inkscape.org/) -->

<svg
   xmlns:dc="http://purl.org/dc/elements/1.1/"
   xmlns:cc="http://creativecommons.org/ns#"
   xmlns:rdf="http://www.w3.org/1999/02/22-rdf-syntax-ns#"
   xmlns:svg="http://www.w3.org/2000/svg"
   xmlns="http://www.w3.org/2000/svg"
   xmlns:sodipodi="http://sodipodi.sourceforge.net/DTD/sodipodi-0.dtd"
   xmlns:inkscape="http://www.inkscape.org/namespaces/inkscape"
   width="350"
   height="100"
   id="svg3178"
   version="1.1"
   inkscape:version="0.48.4 r9939"
   sodipodi:docname="jakartajs-white.svg"
   inkscape:export-filename="/home/agnium/all/repo/jakartajs/jakartajs-brand/assets/jakartajs-white.png"
   inkscape:export-xdpi="90"
   inkscape:export-ydpi="90">
  <defs
     id="defs3180" />
  <sodipodi:namedview
     id="base"
     pagecolor="#ffffff"
     bordercolor="#666666"
     borderopacity="1.0"
     inkscape:pageopacity="0.0"
     inkscape:pageshadow="2"
     inkscape:zoom="3.1340059"
     inkscape:cx="257.29922"
     inkscape:cy="9.8653875"
     inkscape:document-units="px"
     inkscape:current-layer="layer1"
     showgrid="false"
     inkscape:window-width="1366"
     inkscape:window-height="744"
     inkscape:window-x="0"
     inkscape:window-y="24"
     inkscape:window-maximized="1" />
  <metadata
     id="metadata3183">
    <rdf:RDF>
      <cc:Work
         rdf:about="">
        <dc:format>image/svg+xml</dc:format>
        <dc:type
           rdf:resource="http://purl.org/dc/dcmitype/StillImage" />
        <dc:title />
      </cc:Work>
    </rdf:RDF>
  </metadata>
  <g
     inkscape:label="Layer 1"
     inkscape:groupmode="layer"
     id="layer1"
     transform="translate(0,-952.36218)">
    <path
       style="fill:#ffffff;fill-opacity:1"
       d="M 250 0 L 250 100 L 350 100 L 350 0 L 250 0 z M 326.125 45.375 C 332.0996 45.375 336.37351 47.46176 339.46875 52.90625 L 332.15625 57.59375 C 330.54514 54.70485 328.82341 53.5625 326.125 53.5625 C 323.37262 53.5625 321.625 55.31275 321.625 57.59375 C 321.625 60.41275 323.3745 61.5665 327.40625 63.3125 L 329.75 64.3125 C 337.73412 67.7363 342.21875 71.2149 342.21875 79.0625 C 342.21875 87.5228 335.58165 92.15625 326.65625 92.15625 C 317.92927 92.15625 312.28998 88.0133 309.53125 82.5625 L 317.1875 78.125 C 319.20179 81.4139 321.80258 83.84375 326.4375 83.84375 C 330.33115 83.84375 332.8125 81.8764 332.8125 79.1875 C 332.8125 75.9653 330.25447 74.84335 325.96875 72.96875 L 323.625 71.9375 C 316.84405 69.0486 312.34375 65.43205 312.34375 57.78125 C 312.34375 50.73365 317.73294 45.375 326.125 45.375 z M 295.0625 45.90625 L 304.46875 45.90625 L 304.46875 78 C 304.46875 87.7302 298.76449 92.15625 290.4375 92.15625 C 282.91369 92.15625 278.55962 88.2522 276.34375 83.5625 L 283.96875 78.9375 C 285.44494 81.5565 286.80268 83.78125 290.03125 83.78125 C 293.11855 83.78125 295.0625 82.5719 295.0625 77.875 L 295.0625 45.90625 z "
       id="rect4196"
       transform="translate(0,952.36218)" />
    <text
       xml:space="preserve"
       style="font-size:60px;font-style:normal;font-weight:normal;line-height:125%;letter-spacing:0px;word-spacing:0px;fill:#ffffff;fill-opacity:1;stroke:none;font-family:Sans"
       x="-1.9140625"
       y="1046.6444"
       id="text4216"
       sodipodi:linespacing="125%"><tspan
         sodipodi:role="line"
         id="tspan4218"
         x="-1.9140625"
         y="1046.6444"
         style="font-size:70px;font-style:normal;font-variant:normal;font-weight:normal;font-stretch:normal;fill:#ffffff;fill-opacity:1;font-family:Roboto;-inkscape-font-specification:Roboto">Jakarta</tspan></text>
  </g>
</svg>
