<svg xmlns="http://www.w3.org/2000/svg" viewBox="0 0 511.99999 512" height="512" width="512"><path d="M78.958 367.71c-22.81.015-41.342-18.54-41.345-41.35l-.01-126.594c-.008-22.785 18.52-41.336 41.3-41.34 11.077-.01 21.445 4.288 29.264 12.094 7.82 7.81 12.118 18.196 12.126 29.234l-.01 126.606c.027 11.023-4.26 21.41-12.072 29.21-7.795 7.83-18.194 12.137-29.252 12.14" fill="#fff"/><path d="M403.204 175.805l-11.113-.004-272.308.037-11.118.004-.004-11.116c-.025-45.63 24.836-88.072 65.552-113.147l-15.83-28.895c-1.938-3.388-2.422-7.674-1.296-11.598 1.145-3.92 3.848-7.288 7.474-9.217 2.095-1.19 4.655-1.85 7.245-1.846 5.605.002 10.746 3.045 13.45 7.964l16.57 30.182c17.147-6.29 35.247-9.498 53.947-9.492 18.97-.008 37.162 3.203 54.38 9.52l16.543-30.235c2.664-4.91 7.838-7.965 13.437-7.96 2.52-.003 5.034.613 7.253 1.807 3.72 2.042 6.316 5.297 7.458 9.246 1.137 3.924.68 8.07-1.313 11.665L337.708 51.6c40.655 25.126 65.486 67.535 65.482 113.087l.014 11.118z" fill="#fff"/><path d="M205.39 512c-22.788-.003-41.334-18.54-41.34-41.343l-.01-55.87-10.858.008c-11.604.003-22.493-4.506-30.678-12.696-8.195-8.183-12.71-19.08-12.695-30.692l-.04-196.148-.003-11.125 11.116.003 270.264-.042 11.12-.008v11.116l.03 196.173c.003 23.923-19.46 43.39-43.378 43.385l-10.933.013.016 55.852c-.003 22.788-18.542 41.345-41.322 41.343-11.04.026-21.407-4.267-29.23-12.094-7.834-7.806-12.144-18.186-12.14-29.223v-55.88h-18.577v55.87c-.004 22.797-18.545 41.36-41.343 41.357" fill="#fff"/><path d="M433.075 367.66c-22.8.004-41.346-18.524-41.34-41.33l-.03-126.596c.005-22.805 18.522-41.352 41.31-41.353 22.82-.002 41.374 18.54 41.37 41.34l.012 126.588c.005 22.79-18.524 41.357-41.322 41.353" fill="#fff"/><path d="M463.537 199.297c-.003-16.696-13.535-30.226-30.23-30.222-16.69-.014-30.222 13.54-30.218 30.237l.02 126.593c0 16.713 13.524 30.22 30.23 30.225 16.69-.003 30.215-13.512 30.22-30.238l-.023-126.595zm-342.38-24.475l.045 196.182c-.014 17.845 14.42 32.248 32.255 32.252l21.963.01.025 66.98c-.004 16.674 13.552 30.233 30.207 30.233 16.705 0 30.237-13.57 30.24-30.255l-.015-66.968 40.812-.008.016 66.977c-.004 16.668 13.56 30.246 30.218 30.22 16.703.01 30.243-13.56 30.24-30.246l-.018-66.96 22.04-.016c17.792.007 32.265-14.418 32.27-32.263l-.034-196.183-270.266.045zm197.082-59.868c-6.297.007-11.42-5.097-11.42-11.414.022-6.256 5.116-11.418 11.424-11.44 6.26.018 11.397 5.18 11.39 11.447.016 6.303-5.103 11.408-11.395 11.407m-123.992.023c-6.27-.015-11.38-5.112-11.38-11.41.003-6.272 5.1-11.43 11.39-11.428 6.314-.006 11.42 5.155 11.43 11.425.002 6.292-5.117 11.408-11.44 11.412m128.724-59.54l21.1-38.532c1.124-2.013.387-4.577-1.656-5.714-2.056-1.09-4.6-.35-5.687 1.68L315.416 51.8c-17.937-7.98-38-12.458-59.235-12.434-21.178-.017-41.237 4.442-59.096 12.377l-21.334-38.832c-1.11-2.05-3.663-2.79-5.677-1.674-2.054 1.104-2.804 3.672-1.666 5.68l21.108 38.504c-41.475 21.39-69.496 62.12-69.475 108.884l272.306-.028c.007-46.756-27.964-87.402-69.378-108.843M79.194 169.114c-16.694-.007-30.223 13.55-30.227 30.23l.022 126.59c.003 16.736 13.538 30.24 30.233 30.237 16.705.002 30.237-13.51 30.22-30.235l.002-126.61c-.007-16.674-13.556-30.22-30.25-30.21" fill="#a4c439"/></svg>