<svg xmlns="http://www.w3.org/2000/svg" width="180" height="180" viewBox="-3.5 -3.5 180 180"><path fill="#b3b3b3" d="M16.613 136.06l69.71 38.315 70.07-38.833 13.06-108.332L86.236-1.375l-82.69 29.1"/><path fill="#a6120d" d="M161.206 33.47L86.042 7.84v157.38l62.99-34.86"/><path fill="#dd1b16" d="M12.825 33.933l11.197 96.89 62.02 34.398V7.837"/><path d="M106.732 91.62l-20.69 9.676H64.235l-10.25 25.64-19.068.353L86.042 13.553l20.69 78.067zm-2-4.87L86.18 50.02 70.96 86.12h15.08l18.692.632z" fill="#f2f2f2"/><path fill="#b3b3b3" d="M86.04 13.554l.138 36.467 17.268 36.126H86.08l-.04 15.127 24.014.023 11.223 25.997 18.244.338"/></svg>