<?xml version="1.0" encoding="UTF-8" standalone="no"?>
<!-- Created with Inkscape (http://www.inkscape.org/) -->

<svg
   xmlns:dc="http://purl.org/dc/elements/1.1/"
   xmlns:cc="http://creativecommons.org/ns#"
   xmlns:rdf="http://www.w3.org/1999/02/22-rdf-syntax-ns#"
   xmlns:svg="http://www.w3.org/2000/svg"
   xmlns="http://www.w3.org/2000/svg"
   xmlns:sodipodi="http://sodipodi.sourceforge.net/DTD/sodipodi-0.dtd"
   xmlns:inkscape="http://www.inkscape.org/namespaces/inkscape"
   id="svg2"
   version="1.1"
   inkscape:version="0.48.4 r9939"
   width="400"
   height="180"
   xml:space="preserve"
   sodipodi:docname="git-github.svg"><metadata
     id="metadata8"><rdf:RDF><cc:Work
         rdf:about=""><dc:format>image/svg+xml</dc:format><dc:type
           rdf:resource="http://purl.org/dc/dcmitype/StillImage" /><dc:title></dc:title></cc:Work></rdf:RDF></metadata><defs
     id="defs6" /><sodipodi:namedview
     pagecolor="#ffffff"
     bordercolor="#666666"
     borderopacity="1"
     objecttolerance="10"
     gridtolerance="10"
     guidetolerance="10"
     inkscape:pageopacity="0"
     inkscape:pageshadow="2"
     inkscape:window-width="1366"
     inkscape:window-height="744"
     id="namedview4"
     showgrid="false"
     inkscape:zoom="0.95850028"
     inkscape:cx="23.161183"
     inkscape:cy="2.4428329"
     inkscape:window-x="0"
     inkscape:window-y="24"
     inkscape:window-maximized="1"
     inkscape:current-layer="g10" /><g
     id="g10"
     inkscape:groupmode="layer"
     inkscape:label="ink_ext_XXXXXX"
     transform="matrix(1.25,0,0,-1.25,0,180)"><g
       id="g12"
       transform="matrix(0.15671207,0,0,0.15671518,7.6593024e-4,7.6700412e-4)"
       style="fill:#f05033;fill-opacity:1"><path
         d="M 901.543,500.352 500.352,901.527 c -23.094,23.11 -60.567,23.11 -83.692,0 L 333.359,818.211 439.031,712.535 c 24.563,8.293 52.727,2.727 72.297,-16.847 19.688,-19.696 25.203,-48.102 16.699,-72.75 L 629.883,521.094 c 24.648,8.496 53.066,3.004 72.754,-16.711 27.5,-27.492 27.5,-72.059 0,-99.574 -27.52,-27.516 -72.078,-27.516 -99.61,0 -20.683,20.703 -25.8,51.097 -15.312,76.582 l -95,94.992 0,-249.969 c 6.699,-3.32 13.027,-7.742 18.613,-13.312 27.5,-27.497 27.5,-72.059 0,-99.598 -27.5,-27.488 -72.09,-27.488 -99.57,0 -27.5,27.539 -27.5,72.101 0,99.598 6.797,6.789 14.668,11.925 23.066,15.363 l 0,252.281 c -8.398,3.438 -16.25,8.531 -23.066,15.367 -20.828,20.821 -25.84,51.395 -15.156,76.977 L 292.422,777.285 17.3242,502.211 c -23.10545,-23.129 -23.10545,-60.602 0,-83.711 L 418.535,17.3242 c 23.098,-23.10545 60.559,-23.10545 83.692,0 L 901.543,416.641 c 23.113,23.113 23.113,60.605 0,83.711"
         style="fill:#f05033;fill-opacity:1;fill-rule:nonzero;stroke:none"
         id="path14"
         inkscape:connector-curvature="0" /></g><path
       style="fill:#1b1817;fill-opacity:1;fill-rule:evenodd;stroke:none"
       d="m 248.01485,142.2185 c -39.75962,0 -72.0149,-32.21952 -72.0149,-71.985101 0,-31.811749 20.63394,-58.798261 49.24198,-68.3187742 3.59836,-0.666496 4.91824,1.555951 4.91824,3.457669 0,1.716912 -0.0584,7.3970282 -0.0894,13.4133722 -20.03063,-4.355471 -24.2633,8.495136 -24.2633,8.495136 -3.27524,8.322252 -7.9884,10.522045 -7.9884,10.522045 -6.53262,4.46874 0.47691,4.381702 0.47691,4.381702 7.23011,-0.506727 11.05858,-7.422066 11.05858,-7.422066 6.42173,-11.006119 16.84601,-7.831025 20.95467,-5.991307 0.64623,4.653546 2.50145,7.831025 4.56055,9.627821 -15.99232,1.820642 -32.81805,8.001524 -32.81805,35.590147 0,7.860832 2.81621,14.27302 7.42206,19.315255 -0.74757,1.81468 -3.19417,9.159251 0.71538,19.076801 0,0 6.03304,1.92318 19.79218,-7.39226 5.74331,1.5953 11.91465,2.38698 18.03353,2.4144 6.11889,-0.0274 12.2795,-0.8191 18.03354,-2.4144 13.74244,9.31544 19.76237,7.39226 19.76237,7.39226 3.91908,-9.91755 1.46295,-17.262121 0.71538,-19.076801 4.61658,-5.042235 7.42206,-11.454423 7.42206,-19.315255 0,-27.6542 -16.84481,-33.748044 -32.87766,-35.530532 2.58252,-2.23437 4.88842,-6.606533 4.88842,-13.32395 0,-9.633782 -0.0894,-17.3908842 -0.0894,-19.7623682 0,-1.916026 1.29842,-4.164703 4.94805,-3.457669 C 299.41018,11.445869 320,38.432381 320,70.233399 320,109.99898 287.7781,142.2185 248.0149,142.2185 z m -46.142,-102.150283 c -0.2255,-0.04099 -0.39942,-0.174076 -0.47692,-0.35769 -0.1693,-0.358883 0.13354,-0.838187 0.65577,-1.07307 0.51269,-0.245614 1.06353,-0.15023 1.22211,0.208652 0.18123,0.358882 -0.10254,0.866803 -0.62596,1.102878 -0.26052,0.122216 -0.5495,0.160216 -0.775,0.11923 z m 2.95095,-2.474023 c -0.11816,-0.02281 -0.23936,-0.09956 -0.32789,-0.178844 -0.34815,-0.323114 -0.23249,-0.988417 0.23846,-1.490375 0.45546,-0.503151 1.11719,-0.646227 1.46057,-0.327883 0.35888,0.321921 0.26231,0.982455 -0.20865,1.490375 -0.35411,0.375574 -0.80787,0.575137 -1.16249,0.506727 z m 2.98075,-3.666321 c -0.13656,-0.0073 -0.27572,-0.07213 -0.3875,-0.149038 -0.45069,-0.307613 -0.44115,-1.058762 0,-1.699027 0.44592,-0.640265 1.16845,-0.932378 1.6096,-0.625957 0.45069,0.313574 0.43996,1.077839 0,1.728834 -0.33891,0.475728 -0.81244,0.767097 -1.2221,0.745188 z m 3.45766,-4.113435 c -0.23979,-0.01133 -0.44636,-0.07482 -0.59615,-0.238459 -0.39584,-0.43519 -0.21222,-1.267415 0.41731,-1.848065 0.61523,-0.593765 1.45341,-0.703457 1.84806,-0.268267 0.42089,0.43042 0.20746,1.238799 -0.4173,1.818257 -0.3875,0.368125 -0.85224,0.555325 -1.25192,0.536534 z m 5.24612,-3.129786 c -0.5832,0.0064 -1.0653,-0.230114 -1.1923,-0.655765 -0.16453,-0.569919 0.34816,-1.243569 1.1625,-1.490375 0.81553,-0.239652 1.64418,0.03219 1.81825,0.59615 0.16931,0.573496 -0.37915,1.214953 -1.1923,1.460567 -0.20537,0.06409 -0.40174,0.08728 -0.59615,0.08942 z m 12.04223,-0.23846 c -0.19283,0.02106 -0.41313,0.0072 -0.62596,-0.02981 -0.83461,-0.153806 -1.41526,-0.747572 -1.31153,-1.341337 0.10612,-0.574688 0.86323,-0.927609 1.69903,-0.774995 0.85011,0.158576 1.44388,0.732072 1.34134,1.31153 -0.0814,0.441752 -0.52438,0.771456 -1.10288,0.83461 z m -5.93169,-0.71538 c -0.86084,-0.01431 -1.54999,-0.503151 -1.54999,-1.102877 0.01,-0.584227 0.71896,-1.062339 1.5798,-1.043263 0.85607,0.01073 1.54045,0.509112 1.52018,1.102878 0,0.590188 -0.69392,1.059954 -1.54999,1.043262 z"
       id="path3064"
       inkscape:connector-curvature="0" /></g></svg>