<svg xmlns="http://www.w3.org/2000/svg" viewBox="0 0 800 512" width="800" height="512"><title>HTML5 Logo</title><path fill="#e44d26" d="M0 100.62h362.734l-33.046 370.2L181.145 512 33.01 470.877"/><path fill="#f16529" d="M329.637 130.894h-148.27v349.63l120.03-33.278"/><path fill="#ebebeb" d="M67.5 176.305l1.086 12.183 11.16 125.14h101.62v-45.41h-60.09l-4.15-46.502h64.24v-45.41h-.156M88.138 407.634l93.02 25.823.21-.058v-47.247l-.2.053-50.574-13.656-3.233-36.217H81.777"/><path d="M33.75 0h23.076v22.8h21.11V0h23.078v69.044H77.937v-23.12h-21.11v23.12H33.75V0zM131.36 22.896h-20.315V0h63.72v22.896H154.44v46.148h-23.078V22.896zM184.878 0h24.063l14.803 24.26L238.53 0h24.072v69.044H239.62V34.822l-15.877 24.55h-.397l-15.888-24.55v34.222h-22.58V0zM274.087 0h23.084v46.222h32.454v22.822h-55.537V0z"/><path fill="#fff" d="M274.304 407.634l.683-7.672 10.67-119.55 1.11-12.195H181.208v45.41h55.918l-5.27 58.894-50.648 13.67v47.245M290.898 221.716l.91-10.207 2.07-23.022 1.086-12.183H181.21v45.409h109.542"/><g><g fill="none" fill-rule="evenodd"><path d="M721.523 18.957h-30.105l31.307 33.97V69.1H658.24V50.165h31.3l-31.3-33.972V0h63.283v18.957zm-76.065 0h-30.104l31.305 33.97V69.1h-64.485V50.165h31.304l-31.305-33.972V0h63.283v18.957zm-75.32.77h-32.485v29.647h32.485V69.1h-55.573V0h55.573v19.726zm0 0" fill="#131313"/><path d="M470.298 470.88l-33.01-370.236H800L766.96 470.82 618.42 512l-148.124-41.12zm0 0" fill="#1572b6"/><path d="M618.646 480.525L738.67 447.25l28.236-316.333h-148.26v349.608zm0 0" fill="#33a9dc"/><path d="M618.645 265.052h60.086l4.15-46.5h-64.235v-45.408h113.862l-1.09 12.183-11.16 125.13H618.646v-45.405zm0 0" fill="#fff"/><path d="M618.917 382.978l-.2.056-50.57-13.656-3.234-36.214h-45.579l6.36 71.295 93.014 25.82.21-.057v-47.245zm0 0" fill="#ebebeb"/><path d="M674.872 308.536l-5.468 60.812-50.645 13.67v47.24l93.088-25.8.683-7.67 7.9-88.252h-45.558zm0 0" fill="#fff"/><path d="M618.802 173.144v45.41H509.12l-.91-10.206-2.07-23.02-1.085-12.183h113.747zm0 0M618.645 265.057v45.408h-49.932l-.91-10.205-2.07-23.02-1.086-12.183h53.997zm0 0" fill="#ebebeb"/></g></g></svg>