<svg xmlns="http://www.w3.org/2000/svg" xmlns:xlink="http://www.w3.org/1999/xlink" version="1.1" x="0px" y="0px" viewBox="0 0 100 125" enable-background="new 0 0 100 100" xml:space="preserve"><g><g><path d="M50.75,34.313v-12.38l1.799,1.799l1.061-1.061l-3.077-3.079c-0.293-0.293-0.768-0.293-1.061,0l-3.079,3.079l1.061,1.061    l1.799-1.799v12.379L50.75,34.313L50.75,34.313z"/><path d="M49.25,65.782v12.38l-1.799-1.799l-1.061,1.061l3.079,3.079c0.146,0.146,0.338,0.22,0.53,0.22s0.384-0.072,0.53-0.22    l3.078-3.079l-1.062-1.061l-1.799,1.799v-12.38H49.25z"/><path d="M75.909,34.031l-4.222-1.074l-0.369,1.454l2.467,0.627l-10.643,6.325l0.767,1.289l10.642-6.325l-0.627,2.465l1.453,0.37    l1.074-4.22c0.05-0.193,0.02-0.397-0.082-0.568C76.268,34.204,76.102,34.08,75.909,34.031z"/><path d="M36.091,57.443l-10.642,6.324l0.627-2.467l-1.453-0.369l-1.073,4.221c-0.103,0.399,0.141,0.81,0.542,0.912l4.22,1.074    l0.369-1.455l-2.465-0.627l10.642-6.324L36.091,57.443z"/><path d="M28.68,34.411l-0.369-1.454l-4.22,1.074c-0.401,0.103-0.645,0.511-0.542,0.912l1.073,4.22l1.453-0.37l-0.627-2.465    l10.642,6.325l0.766-1.289l-10.642-6.325L28.68,34.411z"/><path d="M75.376,60.932l-1.453,0.37l0.627,2.466l-10.642-6.324l-0.766,1.289l10.642,6.324l-2.466,0.627l0.369,1.455l4.221-1.074    c0.193-0.049,0.357-0.174,0.46-0.345s0.132-0.375,0.082-0.567L75.376,60.932z"/><path d="M50,37.403c-7.074,0-12.83,5.755-12.83,12.83c0,7.076,5.756,12.83,12.83,12.83s12.83-5.754,12.83-12.83    C62.831,43.158,57.075,37.403,50,37.403z M50,61.563c-6.247,0-11.33-5.082-11.33-11.33c0-6.247,5.083-11.33,11.33-11.33    s11.33,5.083,11.33,11.33C61.331,56.48,56.248,61.563,50,61.563z"/><path d="M16.787,63.014c-3.462,0-6.278,2.817-6.278,6.279s2.816,6.279,6.278,6.279c3.463,0,6.279-2.817,6.279-6.279    S20.25,63.014,16.787,63.014z M16.787,74.072c-2.635,0-4.778-2.146-4.778-4.779s2.144-4.779,4.778-4.779    c2.636,0,4.779,2.146,4.779,4.779S19.422,74.072,16.787,74.072z"/><path d="M83.212,36.207c3.463,0,6.279-2.817,6.279-6.279c0-3.462-2.816-6.279-6.279-6.279s-6.278,2.817-6.278,6.279    C76.934,33.39,79.75,36.207,83.212,36.207z M83.212,25.149c2.636,0,4.779,2.144,4.779,4.779c0,2.635-2.144,4.779-4.779,4.779    c-2.635,0-4.778-2.144-4.778-4.779C78.434,27.293,80.577,25.149,83.212,25.149z"/><path d="M50,16.808c3.463,0,6.279-2.817,6.279-6.279c0-3.462-2.816-6.279-6.279-6.279c-3.462,0-6.278,2.817-6.278,6.279    C43.721,13.991,46.538,16.808,50,16.808z M50,5.75c2.636,0,4.779,2.144,4.779,4.779c0,2.635-2.146,4.779-4.779,4.779    s-4.778-2.144-4.778-4.779C45.222,7.894,47.365,5.75,50,5.75z"/><path d="M50,83.191c-3.462,0-6.278,2.816-6.278,6.278c0,3.464,2.816,6.279,6.278,6.279c3.463,0,6.279-2.815,6.279-6.279    C56.279,86.009,53.462,83.191,50,83.191z M50,94.25c-2.635,0-4.778-2.145-4.778-4.779c0-2.634,2.144-4.779,4.778-4.779    c2.636,0,4.779,2.146,4.779,4.779C54.779,92.105,52.635,94.25,50,94.25z"/><path d="M83.212,63.014c-3.463,0-6.278,2.817-6.278,6.279s2.815,6.279,6.278,6.279s6.279-2.817,6.279-6.279    C89.492,65.831,86.675,63.014,83.212,63.014z M83.212,74.072c-2.636,0-4.778-2.146-4.778-4.779s2.145-4.779,4.778-4.779    c2.636,0,4.779,2.146,4.779,4.779S85.848,74.072,83.212,74.072z"/><path d="M16.787,23.649c-3.462,0-6.278,2.817-6.278,6.279c0,3.462,2.816,6.279,6.278,6.279c3.463,0,6.279-2.817,6.279-6.279    C23.066,26.466,20.25,23.649,16.787,23.649z M16.787,34.707c-2.635,0-4.778-2.144-4.778-4.779c0-2.635,2.144-4.779,4.778-4.779    c2.636,0,4.779,2.144,4.779,4.779C21.566,32.563,19.422,34.707,16.787,34.707z"/></g></g><text x="0" y="115" fill="#000000" font-size="5px" font-weight="bold" font-family="'Helvetica Neue', Helvetica, Arial-Unicode, Arial, Sans-serif">Created by Juan Pablo Bravo</text><text x="0" y="120" fill="#000000" font-size="5px" font-weight="bold" font-family="'Helvetica Neue', Helvetica, Arial-Unicode, Arial, Sans-serif">from the Noun Project</text></svg>