<?xml version="1.0" encoding="UTF-8" standalone="no"?>
<svg
   xmlns:dc="http://purl.org/dc/elements/1.1/"
   xmlns:cc="http://creativecommons.org/ns#"
   xmlns:rdf="http://www.w3.org/1999/02/22-rdf-syntax-ns#"
   xmlns:svg="http://www.w3.org/2000/svg"
   xmlns="http://www.w3.org/2000/svg"
   xmlns:sodipodi="http://sodipodi.sourceforge.net/DTD/sodipodi-0.dtd"
   xmlns:inkscape="http://www.inkscape.org/namespaces/inkscape"
   version="1.1"
   x="0px"
   y="0px"
   viewBox="0 0 180 180"
   enable-background="new 0 0 100 100"
   xml:space="preserve"
   id="svg2"
   inkscape:version="0.48.4 r9939"
   width="100%"
   height="100%"
   sodipodi:docname="oop.svg"><metadata
     id="metadata42"><rdf:RDF><cc:Work
         rdf:about=""><dc:format>image/svg+xml</dc:format><dc:type
           rdf:resource="http://purl.org/dc/dcmitype/StillImage" /></cc:Work></rdf:RDF></metadata><defs
     id="defs40" /><sodipodi:namedview
     pagecolor="#ffffff"
     bordercolor="#666666"
     borderopacity="1"
     objecttolerance="10"
     gridtolerance="10"
     guidetolerance="10"
     inkscape:pageopacity="0"
     inkscape:pageshadow="2"
     inkscape:window-width="1366"
     inkscape:window-height="744"
     id="namedview38"
     showgrid="false"
     inkscape:zoom="2.512928"
     inkscape:cx="10.38629"
     inkscape:cy="73.300946"
     inkscape:window-x="0"
     inkscape:window-y="24"
     inkscape:window-maximized="1"
     inkscape:current-layer="svg2" /><g
     id="g3048"><path
       id="path8"
       d="M 91.475442,59.141621 V 34.78699 l 3.539093,3.539094 2.087259,-2.087259 -6.053247,-6.057181 c -0.576406,-0.576406 -1.510852,-0.576406 -2.087259,0 l -6.057181,6.057181 2.087259,2.087259 3.539093,-3.539094 v 24.352664 l 2.944983,0.002 0,0 z"
       style="fill:#f44336;fill-opacity:1" /><path
       id="path10"
       d="m 88.524558,121.0492 v 24.35463 l -3.539094,-3.53909 -2.087259,2.08726 6.057182,6.05718 c 0.287219,0.28722 0.664932,0.4328 1.042645,0.4328 0.377714,0 0.755427,-0.14165 1.042646,-0.4328 l 6.055214,-6.05718 -2.089226,-2.08726 -3.539093,3.53909 V 121.0492 h -2.943015 z"
       style="fill:#f44336;fill-opacity:1" /><path
       id="path12"
       d="m 140.96964,58.586855 -8.30576,-2.112833 -0.72591,2.86039 4.85322,1.23347 -20.93751,12.442894 1.50888,2.535793 20.93554,-12.442894 -1.23347,4.849286 2.85843,0.727885 2.11283,-8.301821 c 0.0984,-0.37968 0.0394,-0.781001 -0.16131,-1.117402 -0.1987,-0.334433 -0.52526,-0.578373 -0.90494,-0.674768 z"
       style="fill:#f44336;fill-opacity:1" /><path
       id="path14"
       d="m 62.637435,104.64425 -20.93554,12.44093 1.23347,-4.85322 -2.858423,-0.72592 -2.110866,8.30379 c -0.202628,0.78494 0.277383,1.59348 1.066253,1.79414 l 8.30182,2.11283 0.725918,-2.86236 -4.849286,-1.23346 20.935539,-12.44093 -1.508885,-2.5358 z"
       style="fill:#f44336;fill-opacity:1" /><path
       id="path16"
       d="m 48.0581,59.334412 -0.725918,-2.86039 -8.301821,2.112833 c -0.788869,0.202627 -1.26888,1.005268 -1.066252,1.794137 l 2.110865,8.301821 2.858424,-0.727885 -1.23347,-4.849286 20.935539,12.442895 1.506919,-2.535793 -20.93554,-12.442895 4.851254,-1.235437 z"
       style="fill:#f44336;fill-opacity:1" /><path
       id="path18"
       d="m 139.92109,111.50801 -2.85842,0.72789 1.23347,4.85125 -20.93554,-12.44093 -1.50692,2.53579 20.93554,12.44093 -4.85125,1.23347 0.72591,2.86236 8.30379,-2.11283 c 0.37968,-0.0964 0.70231,-0.34231 0.90494,-0.67871 0.20263,-0.3364 0.25968,-0.73772 0.16131,-1.11543 l -2.11283,-8.30379 z"
       style="fill:#f44336;fill-opacity:1" /><path
       id="path3034"
       d="m 90,65.220442 c -13.91637,0 -25.239896,11.321559 -25.239896,25.239896 0,13.920302 11.323526,25.239892 25.239896,25.239892 13.91637,0 25.2399,-11.31959 25.2399,-25.239892 C 115.24186,76.542001 103.91834,65.220442 90,65.220442 z"
       style="fill:#f44336;fill-opacity:1" /><path
       id="path3030"
       d="m 24.661523,115.60384 c -6.810641,0 -12.350434,5.54176 -12.350434,12.3524 0,6.81064 5.539793,12.3524 12.350434,12.3524 6.812608,0 12.352401,-5.54176 12.352401,-12.3524 0,-6.81064 -5.539793,-12.3524 -12.352401,-12.3524 z"
       style="fill:#f44336;fill-opacity:1" /><path
       id="path3026"
       d="m 155.33651,62.867604 c 6.81261,0 12.3524,-5.541761 12.3524,-12.352401 0,-6.810641 -5.53979,-12.352401 -12.3524,-12.352401 -6.81261,0 -12.35043,5.54176 -12.35043,12.352401 0,6.81064 5.53979,12.352401 12.35043,12.352401 z"
       style="fill:#f44336;fill-opacity:1" /><path
       id="path3022"
       d="m 90,24.704803 c 6.812608,0 12.3524,-5.541761 12.3524,-12.352401 C 102.3524,5.5417612 96.812608,7.25e-7 90,7.25e-7 83.189359,7.25e-7 77.649566,5.5417612 77.649566,12.352402 77.647599,19.163042 83.189359,24.704803 90,24.704803 z"
       style="fill:#f44336;fill-opacity:1" /><path
       id="path3018"
       d="m 90,155.29716 c -6.810641,0 -12.350434,5.5398 -12.350434,12.35044 0,6.81457 5.539793,12.3524 12.350434,12.3524 6.812608,0 12.3524,-5.53783 12.3524,-12.3524 0,-6.80671 -5.54176,-12.35044 -12.3524,-12.35044 z"
       style="fill:#f44336;fill-opacity:1" /><path
       id="path3014"
       d="m 155.33651,115.60384 c -6.81261,0 -12.35043,5.54176 -12.35043,12.3524 0,6.81064 5.53782,12.3524 12.35043,12.3524 6.81261,0 12.3524,-5.54176 12.3524,-12.3524 0.002,-6.81064 -5.53979,-12.3524 -12.3524,-12.3524 z"
       style="fill:#f44336;fill-opacity:1" /><path
       id="path3010"
       d="m 24.661523,38.162802 c -6.810641,0 -12.350434,5.54176 -12.350434,12.352401 0,6.81064 5.539793,12.352401 12.350434,12.352401 6.812608,0 12.352401,-5.541761 12.352401,-12.352401 0,-6.810641 -5.539793,-12.352401 -12.352401,-12.352401 z"
       style="fill:#f44336;fill-opacity:1" /></g></svg>