<svg xmlns="http://www.w3.org/2000/svg" viewBox="0 0 180 180"><g fill="#f44336"><path d="M91.475 59.142V34.787l3.54 3.54 2.087-2.088-6.053-6.058c-.578-.577-1.512-.577-2.09 0l-6.056 6.057 2.087 2.086 3.54-3.54V59.14l2.945.002zM88.525 121.05v24.354l-3.54-3.54-2.087 2.088 6.057 6.057c.288.286.665.432 1.043.432.378 0 .755-.142 1.043-.433l6.056-6.058-2.09-2.087-3.538 3.54v-24.356h-2.943zM140.97 58.587l-8.306-2.113-.726 2.86 4.853 1.234-20.936 12.443 1.51 2.537 20.934-12.443-1.233 4.85 2.858.727 2.113-8.3c.098-.38.04-.782-.16-1.118-.2-.335-.527-.58-.906-.675zM62.637 104.644l-20.935 12.44 1.233-4.852-2.858-.726-2.11 8.304c-.204.785.276 1.593 1.065 1.794l8.302 2.113.726-2.863-4.85-1.233 20.936-12.44-1.51-2.536zM48.058 59.334l-.726-2.86-8.302 2.113c-.79.202-1.27 1.005-1.066 1.794l2.11 8.303 2.86-.728-1.234-4.85L62.635 75.55l1.507-2.537L43.207 60.57l4.85-1.236zM139.92 111.508l-2.857.728 1.233 4.85-20.935-12.44-1.506 2.536 20.935 12.44-4.852 1.234.726 2.863 8.304-2.114c.38-.096.702-.342.905-.68.202-.335.26-.736.16-1.114l-2.112-8.304zM90 65.22c-13.916 0-25.24 11.322-25.24 25.24 0 13.92 11.324 25.24 25.24 25.24 13.916 0 25.24-11.32 25.24-25.24.002-13.918-11.322-25.24-25.24-25.24zM24.662 115.604c-6.81 0-12.35 5.542-12.35 12.352 0 6.81 5.54 12.353 12.35 12.353 6.812 0 12.352-5.543 12.352-12.354 0-6.81-5.54-12.352-12.352-12.352zM155.337 62.868c6.812 0 12.352-5.542 12.352-12.353 0-6.81-5.54-12.352-12.353-12.352s-12.35 5.542-12.35 12.352c0 6.81 5.54 12.353 12.35 12.353zM90 24.705c6.813 0 12.352-5.542 12.352-12.353C102.352 5.542 96.812 0 90 0c-6.81 0-12.35 5.542-12.35 12.352-.002 6.81 5.54 12.353 12.35 12.353zM90 155.297c-6.81 0-12.35 5.54-12.35 12.35C77.65 174.463 83.19 180 90 180c6.813 0 12.352-5.538 12.352-12.352 0-6.807-5.54-12.35-12.352-12.35zM155.337 115.604c-6.813 0-12.35 5.542-12.35 12.352 0 6.81 5.537 12.353 12.35 12.353 6.812 0 12.352-5.543 12.352-12.354 0-6.81-5.54-12.352-12.353-12.352zM24.662 38.163c-6.81 0-12.35 5.542-12.35 12.352 0 6.81 5.54 12.353 12.35 12.353 6.812 0 12.352-5.542 12.352-12.353 0-6.81-5.54-12.352-12.352-12.352z"/></g></svg>