<?xml version="1.0" encoding="UTF-8" standalone="no"?>
<svg
   xmlns:dc="http://purl.org/dc/elements/1.1/"
   xmlns:cc="http://creativecommons.org/ns#"
   xmlns:rdf="http://www.w3.org/1999/02/22-rdf-syntax-ns#"
   xmlns:svg="http://www.w3.org/2000/svg"
   xmlns="http://www.w3.org/2000/svg"
   xmlns:sodipodi="http://sodipodi.sourceforge.net/DTD/sodipodi-0.dtd"
   xmlns:inkscape="http://www.inkscape.org/namespaces/inkscape"
   version="1.1"
   x="0px"
   y="0px"
   viewBox="0 0 180 180"
   enable-background="new 0 0 72 72"
   xml:space="preserve"
   id="svg2"
   inkscape:version="0.48.4 r9939"
   width="100%"
   height="100%"
   sodipodi:docname="qa.svg"><metadata
     id="metadata22"><rdf:RDF><cc:Work
         rdf:about=""><dc:format>image/svg+xml</dc:format><dc:type
           rdf:resource="http://purl.org/dc/dcmitype/StillImage" /></cc:Work></rdf:RDF></metadata><defs
     id="defs20" /><sodipodi:namedview
     pagecolor="#ffffff"
     bordercolor="#666666"
     borderopacity="1"
     objecttolerance="10"
     gridtolerance="10"
     guidetolerance="10"
     inkscape:pageopacity="0"
     inkscape:pageshadow="2"
     inkscape:window-width="1366"
     inkscape:window-height="744"
     id="namedview18"
     showgrid="false"
     inkscape:zoom="1.9701144"
     inkscape:cx="78.140364"
     inkscape:cy="-3.1608686"
     inkscape:window-x="0"
     inkscape:window-y="24"
     inkscape:window-maximized="1"
     inkscape:current-layer="svg2" /><g
     id="g4"
     transform="matrix(2.5352113,0,0,2.5352113,-1.2676068,-1.2676068)"
     style="fill:#f44336;fill-opacity:1"><path
       d="M 69.8,0.5 H 2.2 C 1.3,0.5 0.5,1.3 0.5,2.2 v 67.6 c 0,0.9 0.8,1.7 1.7,1.7 h 67.6 c 0.9,0 1.7,-0.8 1.7,-1.7 V 2.2 C 71.5,1.3 70.7,0.5 69.8,0.5 z M 25,4.5 c 1.2,0 2.1,0.9 2.1,2.1 0,1.2 -0.9,2.1 -2.1,2.1 -1.2,0 -2.1,-0.9 -2.1,-2.1 0,-1.2 0.9,-2.1 2.1,-2.1 z m -8.9,0 c 1.2,0 2.1,0.9 2.1,2.1 0,1.2 -0.9,2.1 -2.1,2.1 C 15,8.7 14,7.8 14,6.6 14,5.4 15,4.5 16.1,4.5 z m -8.8,0 C 8.5,4.5 9.4,5.4 9.4,6.6 9.4,7.8 8.5,8.7 7.3,8.7 6.1,8.7 5.2,7.8 5.2,6.6 5.2,5.4 6.1,4.5 7.3,4.5 z m 59.2,60.3 c 0,0.9 -0.8,1.7 -1.7,1.7 H 7.2 C 6.3,66.5 5.5,65.7 5.5,64.8 V 16.5 c 0,-0.9 0.8,-1.7 1.7,-1.7 h 57.6 c 0.9,0 1.7,0.8 1.7,1.7 v 48.3 z"
       id="path6"
       inkscape:connector-curvature="0"
       style="fill:#f44336;fill-opacity:1" /><path
       d="m 61.9,30.3 h -2.5 c -0.3,0 -0.5,-0.2 -0.6,-0.4 C 58.6,29.4 58.4,28.8 58.1,28.3 58,28.1 58,27.8 58.2,27.6 l 1.7,-1.7 c 0.2,-0.2 0.2,-0.7 0,-0.9 L 57.2,22 C 57,21.8 56.5,21.8 56.3,22 l -1.7,1.7 c -0.2,0.2 -0.5,0.2 -0.7,0.1 -0.5,-0.3 -1,-0.5 -1.6,-0.7 C 52,23 51.9,22.8 51.9,22.5 V 20 c 0,-0.4 -0.3,-0.6 -0.6,-0.6 H 47 c -0.4,0 -0.6,0.3 -0.6,0.6 v 2.5 c 0,0.3 -0.2,0.5 -0.4,0.6 -0.5,0.2 -1.1,0.4 -1.6,0.7 -0.2,0.1 -0.5,0.1 -0.7,-0.1 L 41.9,22 C 41.7,21.8 41.2,21.8 41,22 l -2.9,2.9 c -0.2,0.2 -0.2,0.7 0,0.9 l 1.7,1.7 c 0.2,0.2 0.2,0.5 0.1,0.7 -0.3,0.5 -0.5,1 -0.7,1.6 -0.1,0.3 -0.3,0.4 -0.6,0.4 h -2.5 c -0.4,0 -0.6,0.3 -0.6,0.6 V 35 c 0,0.4 0.3,0.6 0.6,0.6 h 2.5 c 0.3,0 0.5,0.2 0.6,0.4 0.2,0.5 0.4,1.1 0.7,1.6 0.1,0.2 0.1,0.5 -0.1,0.7 L 38.1,40 c -0.2,0.2 -0.2,0.7 0,0.9 L 41,44 c 0.2,0.2 0.7,0.2 0.9,0 l 1.7,-1.7 c 0.2,-0.2 0.5,-0.2 0.7,-0.1 0.5,0.3 1,0.5 1.6,0.7 0.3,0.1 0.4,0.3 0.4,0.6 V 46 c 0,0.4 0.3,0.6 0.6,0.6 H 51 c 0.4,0 0.6,-0.3 0.6,-0.6 v -2.5 c 0,-0.3 0.2,-0.5 0.4,-0.6 0.5,-0.2 1.1,-0.4 1.6,-0.7 0.2,-0.1 0.5,-0.1 0.7,0.1 L 56,44 c 0.2,0.2 0.7,0.2 0.9,0 l 2.9,-2.9 c 0.2,-0.2 0.2,-0.7 0,-0.9 L 58.1,38.5 C 57.9,38.3 57.9,38 58,37.8 c 0.3,-0.5 0.5,-1 0.7,-1.6 0.1,-0.3 0.3,-0.4 0.6,-0.4 h 2.5 c 0.4,0 0.6,-0.3 0.6,-0.6 v -4.1 c 0.2,-0.5 -0.1,-0.8 -0.5,-0.8 z m -12.8,9.1 c -3.5,0 -6.4,-2.9 -6.4,-6.4 0,-3.5 2.9,-6.4 6.4,-6.4 3.5,0 6.4,2.9 6.4,6.4 0,3.5 -2.9,6.4 -6.4,6.4 z"
       id="path8"
       inkscape:connector-curvature="0"
       style="fill:#f44336;fill-opacity:1" /><path
       d="M 58,54.9 H 14 c -1.1,0 -2,0.9 -2,2 0,1.1 0.9,2 2,2 h 44 c 1.1,0 2,-0.9 2,-2 0,-1.1 -0.9,-2 -2,-2 z"
       id="path10"
       inkscape:connector-curvature="0"
       style="fill:#f44336;fill-opacity:1" /><path
       d="M 27,36.4 C 26.2,35.8 25.1,36 24.4,36.7 l -3,3 C 21.1,40 20.6,39.8 20.6,39.4 V 20.9 c 0,-1 -0.7,-1.9 -1.7,-2.1 -1.3,-0.2 -2.3,0.8 -2.3,2 v 18.5 c 0,0.4 -0.5,0.6 -0.8,0.3 l -3,-3 c -0.7,-0.7 -1.8,-0.9 -2.6,-0.3 -1,0.7 -1.1,2.2 -0.3,3 l 7.2,7.2 c 0.4,0.4 0.9,0.6 1.4,0.6 0.5,0 1,-0.2 1.4,-0.6 l 7.2,-7.2 c 1,-0.7 0.9,-2.2 -0.1,-2.9 z"
       id="path12"
       inkscape:connector-curvature="0"
       style="fill:#f44336;fill-opacity:1" /></g></svg>