<svg xmlns="http://www.w3.org/2000/svg" xmlns:xlink="http://www.w3.org/1999/xlink" version="1.1" x="0px" y="0px" viewBox="0 0 72 90" enable-background="new 0 0 72 72" xml:space="preserve"><g><path d="M69.8,0.5H2.2c-0.9,0-1.7,0.8-1.7,1.7v67.6c0,0.9,0.8,1.7,1.7,1.7h67.6c0.9,0,1.7-0.8,1.7-1.7V2.2   C71.5,1.3,70.7,0.5,69.8,0.5z M25,4.5c1.2,0,2.1,0.9,2.1,2.1c0,1.2-0.9,2.1-2.1,2.1c-1.2,0-2.1-0.9-2.1-2.1   C22.9,5.4,23.8,4.5,25,4.5z M16.1,4.5c1.2,0,2.1,0.9,2.1,2.1c0,1.2-0.9,2.1-2.1,2.1C15,8.7,14,7.8,14,6.6C14,5.4,15,4.5,16.1,4.5z    M7.3,4.5c1.2,0,2.1,0.9,2.1,2.1c0,1.2-0.9,2.1-2.1,2.1S5.2,7.8,5.2,6.6C5.2,5.4,6.1,4.5,7.3,4.5z M66.5,64.8   c0,0.9-0.8,1.7-1.7,1.7H7.2c-0.9,0-1.7-0.8-1.7-1.7V16.5c0-0.9,0.8-1.7,1.7-1.7h57.6c0.9,0,1.7,0.8,1.7,1.7V64.8z"/><path d="M61.9,30.3h-2.5c-0.3,0-0.5-0.2-0.6-0.4c-0.2-0.5-0.4-1.1-0.7-1.6c-0.1-0.2-0.1-0.5,0.1-0.7l1.7-1.7c0.2-0.2,0.2-0.7,0-0.9   L57.2,22c-0.2-0.2-0.7-0.2-0.9,0l-1.7,1.7c-0.2,0.2-0.5,0.2-0.7,0.1c-0.5-0.3-1-0.5-1.6-0.7c-0.3-0.1-0.4-0.3-0.4-0.6v-2.5   c0-0.4-0.3-0.6-0.6-0.6H47c-0.4,0-0.6,0.3-0.6,0.6v2.5c0,0.3-0.2,0.5-0.4,0.6c-0.5,0.2-1.1,0.4-1.6,0.7c-0.2,0.1-0.5,0.1-0.7-0.1   L41.9,22c-0.2-0.2-0.7-0.2-0.9,0l-2.9,2.9c-0.2,0.2-0.2,0.7,0,0.9l1.7,1.7c0.2,0.2,0.2,0.5,0.1,0.7c-0.3,0.5-0.5,1-0.7,1.6   c-0.1,0.3-0.3,0.4-0.6,0.4h-2.5c-0.4,0-0.6,0.3-0.6,0.6V35c0,0.4,0.3,0.6,0.6,0.6h2.5c0.3,0,0.5,0.2,0.6,0.4   c0.2,0.5,0.4,1.1,0.7,1.6c0.1,0.2,0.1,0.5-0.1,0.7l-1.7,1.7c-0.2,0.2-0.2,0.7,0,0.9L41,44c0.2,0.2,0.7,0.2,0.9,0l1.7-1.7   c0.2-0.2,0.5-0.2,0.7-0.1c0.5,0.3,1,0.5,1.6,0.7c0.3,0.1,0.4,0.3,0.4,0.6v2.5c0,0.4,0.3,0.6,0.6,0.6h4.1c0.4,0,0.6-0.3,0.6-0.6   v-2.5c0-0.3,0.2-0.5,0.4-0.6c0.5-0.2,1.1-0.4,1.6-0.7c0.2-0.1,0.5-0.1,0.7,0.1l1.7,1.7c0.2,0.2,0.7,0.2,0.9,0l2.9-2.9   c0.2-0.2,0.2-0.7,0-0.9l-1.7-1.7c-0.2-0.2-0.2-0.5-0.1-0.7c0.3-0.5,0.5-1,0.7-1.6c0.1-0.3,0.3-0.4,0.6-0.4h2.5   c0.4,0,0.6-0.3,0.6-0.6v-4.1C62.6,30.6,62.3,30.3,61.9,30.3z M49.1,39.4c-3.5,0-6.4-2.9-6.4-6.4s2.9-6.4,6.4-6.4s6.4,2.9,6.4,6.4   S52.6,39.4,49.1,39.4z"/><path d="M58,54.9H14c-1.1,0-2,0.9-2,2s0.9,2,2,2h44c1.1,0,2-0.9,2-2S59.1,54.9,58,54.9z"/><path d="M27,36.4c-0.8-0.6-1.9-0.4-2.6,0.3l-3,3c-0.3,0.3-0.8,0.1-0.8-0.3V20.9c0-1-0.7-1.9-1.7-2.1c-1.3-0.2-2.3,0.8-2.3,2v18.5   c0,0.4-0.5,0.6-0.8,0.3l-3-3c-0.7-0.7-1.8-0.9-2.6-0.3c-1,0.7-1.1,2.2-0.3,3l7.2,7.2c0.4,0.4,0.9,0.6,1.4,0.6c0.5,0,1-0.2,1.4-0.6   l7.2-7.2C28.1,38.6,28,37.1,27,36.4z"/></g><text x="0" y="87" fill="#000000" font-size="5px" font-weight="bold" font-family="'Helvetica Neue', Helvetica, Arial-Unicode, Arial, Sans-serif">Created by Creative Stall</text><text x="0" y="92" fill="#000000" font-size="5px" font-weight="bold" font-family="'Helvetica Neue', Helvetica, Arial-Unicode, Arial, Sans-serif">from the Noun Project</text></svg>