<svg xmlns="http://www.w3.org/2000/svg" viewBox="0 0 180 180"><g fill="#f44336"><path d="M175.69 0H4.31C2.028 0 0 2.028 0 4.31v171.38c0 2.282 2.028 4.31 4.31 4.31h171.38c2.282 0 4.31-2.028 4.31-4.31V4.31c0-2.282-2.028-4.31-4.31-4.31zM62.113 10.14c3.042 0 5.324 2.283 5.324 5.325 0 3.042-2.282 5.324-5.324 5.324-3.043 0-5.324-2.283-5.324-5.325 0-3.042 2.28-5.324 5.323-5.324zm-22.564 0c3.042 0 5.323 2.283 5.323 5.325 0 3.042-2.28 5.324-5.324 5.324-2.79 0-5.325-2.283-5.325-5.325 0-3.042 2.536-5.324 5.324-5.324zm-22.31 0c3.042 0 5.323 2.283 5.323 5.325 0 3.042-2.28 5.324-5.324 5.324-3.043 0-5.325-2.283-5.325-5.325 0-3.042 2.282-5.324 5.324-5.324zm150.084 152.874c0 2.282-2.028 4.31-4.31 4.31H16.986c-2.282 0-4.31-2.028-4.31-4.31V40.564c0-2.282 2.028-4.31 4.31-4.31h146.028c2.282 0 4.31 2.028 4.31 4.31v122.45z"/><path d="M155.662 75.55h-6.338c-.76 0-1.268-.508-1.52-1.015-.508-1.267-1.015-2.79-1.776-4.056-.253-.508-.253-1.27.254-1.776l4.31-4.31c.507-.507.507-1.774 0-2.28l-6.846-7.607c-.507-.507-1.774-.507-2.28 0l-4.31 4.31c-.508.507-1.27.507-1.776.253-1.267-.76-2.535-1.267-4.056-1.774-.76-.254-1.014-.76-1.014-1.52v-6.34c0-1.013-.76-1.52-1.52-1.52h-10.903c-1.014 0-1.52.76-1.52 1.52v6.34c0 .76-.508 1.266-1.015 1.52-1.267.507-2.79 1.014-4.056 1.774-.507.254-1.268.254-1.775-.253l-4.562-4.31c-.507-.507-1.775-.507-2.282 0l-7.352 7.352c-.507.506-.507 1.774 0 2.28l4.31 4.31c.507.508.507 1.268.253 1.775-.76 1.268-1.267 2.536-1.774 4.057-.254.76-.76 1.014-1.52 1.014h-6.34c-1.014 0-1.52.76-1.52 1.52v10.65c0 1.013.76 1.52 1.52 1.52h6.34c.76 0 1.266.507 1.52 1.014.507 1.268 1.014 2.79 1.774 4.056.254.507.254 1.268-.253 1.775l-4.31 4.31c-.507.508-.507 1.775 0 2.283l7.352 7.86c.507.506 1.775.506 2.282 0l4.31-4.31c.507-.508 1.267-.508 1.774-.255 1.268.76 2.535 1.268 4.057 1.775.76.253 1.013.76 1.013 1.52v6.34c0 1.013.76 1.52 1.52 1.52h10.395c1.014 0 1.52-.76 1.52-1.52v-6.34c0-.76.508-1.267 1.015-1.52 1.268-.507 2.79-1.014 4.057-1.775.507-.253 1.267-.253 1.774.254l4.31 4.31c.507.507 1.775.507 2.282 0l7.352-7.352c.507-.507.507-1.775 0-2.282l-4.31-4.31c-.507-.507-.507-1.268-.253-1.775.76-1.267 1.267-2.535 1.774-4.056.253-.76.76-1.014 1.52-1.014h6.338c1.015 0 1.522-.76 1.522-1.52V77.576c.507-1.267-.254-2.028-1.268-2.028zm-32.45 23.07c-8.874 0-16.226-7.352-16.226-16.226 0-8.873 7.352-16.225 16.225-16.225 8.875 0 16.227 7.35 16.227 16.224S132.085 98.62 123.21 98.62zM145.775 137.915H34.225c-2.788 0-5.07 2.282-5.07 5.07 0 2.79 2.282 5.07 5.07 5.07h111.55c2.788 0 5.07-2.28 5.07-5.07 0-2.788-2.282-5.07-5.07-5.07zM67.183 91.014c-2.028-1.52-4.817-1.014-6.59.76l-7.607 7.606c-.76.76-2.028.254-2.028-.76V51.718c0-2.535-1.775-4.817-4.31-5.324-3.296-.507-5.83 2.03-5.83 5.07v46.902c0 1.014-1.27 1.52-2.03.76l-7.605-7.605c-1.775-1.774-4.563-2.28-6.59-.76-2.537 1.775-2.79 5.578-.762 7.606l18.255 18.254c1.014 1.014 2.28 1.52 3.55 1.52 1.266 0 2.534-.506 3.548-1.52l18.254-18.254c2.535-1.774 2.28-5.577-.254-7.352z"/></g></svg>