<svg xmlns="http://www.w3.org/2000/svg" width="512" height="512" viewBox="0 0 512 512"><title>Swift logo</title><defs><linearGradient x1="180.489" x2="180.489" y2="360.977" id="a" gradientTransform="scale(1.06416 .9397)" gradientUnits="userSpaceOnUse"><stop stop-color="#FEAC3C" offset="0%"/><stop stop-color="#FF0028" offset="100%"/></linearGradient></defs><path d="M236.5 0c163.2 105.6 113.3 238.4 113.3 238.4s17.6 20 26.4 44.8c8.8 24.8 8.703 55.2 7.103 56-1.6.8-22.23-34.4-58.303-34.4-36.073 0-54.4 34.4-118.4 34.4C62.498 339.2 0 221 0 221s63.4 45.4 129.8 43.8c66.4-1.6 84.8-20.8 84.8-20.8s-29.69-24.843-80.8-74.8C82.69 119.243 34.6 50.4 34.6 50.4s77.045 61.062 101.758 79.024c24.713 17.962 49.425 34.24 49.425 34.24s-23.933-25.82-40.783-46.59C128.15 96.308 85 33.6 85 33.6s66.18 59.75 96.29 83.475C211.4 140.8 269 180.8 269 180.8S303.7 101.6 236.5 0z" fill="url(#a)" transform="matrix(1.33286 0 0 1.33286 0 29.94)" fill-rule="evenodd"/></svg>