<svg xmlns="http://www.w3.org/2000/svg" viewBox="0 0 180 180"><g fill="#f44336"><path d="M178.91 56.122l-12.457-12.456c-1.454-1.454-3.816-1.454-5.27 0L149.92 54.94l-10.863 10.864V39.552c0-2.064-1.678-3.73-3.73-3.73H3.727c-2.06 0-3.727 1.666-3.727 3.73v100.896c0 2.064 1.666 3.73 3.73 3.73h131.6c2.05 0 3.73-1.666 3.73-3.73v-39.204l39.85-39.852c1.453-1.454 1.453-3.816 0-5.27zM7.457 43.28h124.14v21.964H7.46V43.28zm124.14 93.44H7.46V72.704h124.14v.56L106.39 98.458c-.336.336-.596.734-.782 1.168l-9.322 21.778c-.596 1.392-.286 3.02.782 4.102.722.708 1.678 1.094 2.648 1.094.484 0 .994-.1 1.466-.31l21.765-9.31c.436-.186.832-.46 1.168-.796l7.484-7.482v28.018zm-20.782-30.318l5.358 5.358-9.372 4.016 4.014-9.374zm21.877-9.336L120.6 109.148l-7.172-7.172 39.45-39.454 7.173 7.172-27.357 27.372zm30.876-30.888l-7.173-7.172-1.206 1.206c.437-.436.747-.944.92-1.492l.287.286 7.42-7.42 7.172 7.172-7.42 7.42z"/><path d="M156.397 59.006l-1.206 1.206c.437-.436.747-.944.92-1.492l.287.286z"/><path d="M156.397 59.006l-1.206 1.206c.437-.436.747-.944.92-1.492l.287.286zM39.144 116.01c-.484 0-.97-.14-1.4-.432L22.808 105.38c-.678-.464-1.084-1.232-1.084-2.054 0-.822.406-1.59 1.084-2.054l14.936-10.198c1.134-.772 2.682-.482 3.454.652.774 1.134.484 2.68-.65 3.454l-11.93 8.144 11.93 8.144c1.134.774 1.426 2.32.65 3.454-.48.708-1.26 1.088-2.054 1.088zM73.26 116.01c-.794 0-1.574-.38-2.056-1.084-.774-1.134-.484-2.68.65-3.456l11.928-8.144-11.928-8.144c-1.134-.774-1.426-2.32-.65-3.456.774-1.134 2.318-1.426 3.454-.652l14.936 10.198c.678.464 1.084 1.232 1.084 2.054 0 .822-.406 1.59-1.084 2.054l-14.936 10.198c-.426.292-.914.432-1.398.432z"/><g><path d="M50.34 120.746c-.302 0-.608-.056-.906-.172-1.278-.502-1.908-1.944-1.406-3.222L59.75 87.486c.5-1.278 1.938-1.908 3.222-1.406 1.278.502 1.908 1.944 1.406 3.222l-11.722 29.866c-.384.98-1.322 1.578-2.316 1.578z"/></g><g><circle r="2.365" cy="32.237" cx="14.33" transform="matrix(2 0 0 2 -10 -10)"/><circle r="2.365" cy="32.237" cx="20.741" transform="matrix(2 0 0 2 -10 -10)"/><circle r="2.365" cy="32.237" cx="27.1" transform="matrix(2 0 0 2 -10 -10)"/></g></g></svg>