<?xml version="1.0" encoding="UTF-8" standalone="no"?>
<svg
   xmlns:dc="http://purl.org/dc/elements/1.1/"
   xmlns:cc="http://creativecommons.org/ns#"
   xmlns:rdf="http://www.w3.org/1999/02/22-rdf-syntax-ns#"
   xmlns:svg="http://www.w3.org/2000/svg"
   xmlns="http://www.w3.org/2000/svg"
   xmlns:sodipodi="http://sodipodi.sourceforge.net/DTD/sodipodi-0.dtd"
   xmlns:inkscape="http://www.inkscape.org/namespaces/inkscape"
   version="1.1"
   x="0px"
   y="0px"
   viewBox="0 0 180 180"
   enable-background="new 0 0 100 100"
   xml:space="preserve"
   id="svg2"
   inkscape:version="0.48.4 r9939"
   width="100%"
   height="100%"
   sodipodi:docname="web-app.svg"><metadata
     id="metadata54"><rdf:RDF><cc:Work
         rdf:about=""><dc:format>image/svg+xml</dc:format><dc:type
           rdf:resource="http://purl.org/dc/dcmitype/StillImage" /></cc:Work></rdf:RDF></metadata><defs
     id="defs52" /><sodipodi:namedview
     pagecolor="#ffffff"
     bordercolor="#666666"
     borderopacity="1"
     objecttolerance="10"
     gridtolerance="10"
     guidetolerance="10"
     inkscape:pageopacity="0"
     inkscape:pageshadow="2"
     inkscape:window-width="1366"
     inkscape:window-height="744"
     id="namedview50"
     showgrid="false"
     inkscape:zoom="1.888"
     inkscape:cx="-14.18047"
     inkscape:cy="68.311826"
     inkscape:window-x="0"
     inkscape:window-y="24"
     inkscape:window-maximized="1"
     inkscape:current-layer="svg2" /><g
     id="g3031"
     transform="matrix(1.9999917,0,0,1.9999917,-9.9999601,-119.99913)"
     style="fill:#f44336;fill-opacity:1"><g
       transform="translate(0,55)"
       id="g4"
       style="fill:#f44336;fill-opacity:1"><g
         id="g6"
         style="fill:#f44336;fill-opacity:1"><path
           style="fill:#f44336;fill-opacity:1"
           inkscape:connector-curvature="0"
           id="path8"
           d="m 94.455,33.061 -6.228,-6.228 c -0.727,-0.727 -1.908,-0.727 -2.635,0 l -5.631,5.637 -5.432,5.432 V 24.776 c 0,-1.032 -0.839,-1.865 -1.865,-1.865 H 6.864 C 5.833,22.911 5,23.744 5,24.776 v 50.448 c 0,1.032 0.833,1.865 1.865,1.865 h 65.8 c 1.026,0 1.865,-0.833 1.865,-1.865 V 55.622 L 94.456,35.696 c 0.726,-0.727 0.726,-1.908 -0.001,-2.635 z M 8.729,26.64 H 70.8 V 37.622 H 8.729 V 26.64 z M 70.8,73.36 H 8.729 V 41.352 H 70.8 v 0.28 L 58.195,54.229 c -0.168,0.168 -0.298,0.367 -0.391,0.584 l -4.661,10.889 c -0.298,0.696 -0.143,1.51 0.391,2.051 0.361,0.354 0.839,0.547 1.324,0.547 0.242,0 0.497,-0.05 0.733,-0.155 L 66.474,63.49 c 0.218,-0.093 0.416,-0.23 0.584,-0.398 L 70.8,59.351 V 73.36 z m -10.392,-15.159 2.679,2.679 -4.686,2.008 2.007,-4.687 z M 71.347,53.533 65.3,59.574 61.714,55.988 81.44,36.261 85.026,39.847 71.347,53.533 z m 15.438,-15.444 -3.586,-3.586 -0.603,0.603 c 0.218,-0.218 0.373,-0.472 0.46,-0.746 l 0.143,0.143 3.71,-3.71 3.586,3.586 -3.71,3.71 z" /><path
           style="fill:#f44336;fill-opacity:1"
           inkscape:connector-curvature="0"
           id="path10"
           d="m 83.199,34.503 -0.603,0.603 c 0.218,-0.218 0.373,-0.472 0.46,-0.746 l 0.143,0.143 z" /></g><g
         id="g12"
         style="fill:#f44336;fill-opacity:1"><path
           style="fill:#f44336;fill-opacity:1"
           inkscape:connector-curvature="0"
           id="path14"
           d="m 83.199,34.503 -0.603,0.603 c 0.218,-0.218 0.373,-0.472 0.46,-0.746 l 0.143,0.143 z" /></g></g><g
       transform="translate(0,55)"
       id="g16"
       style="fill:#f44336;fill-opacity:1"><g
         id="g18"
         style="fill:#f44336;fill-opacity:1"><path
           style="fill:#f44336;fill-opacity:1"
           inkscape:connector-curvature="0"
           id="path20"
           d="m 24.572,63.005 c -0.242,0 -0.485,-0.07 -0.7,-0.216 L 16.404,57.69 c -0.339,-0.232 -0.542,-0.616 -0.542,-1.027 0,-0.411 0.203,-0.795 0.542,-1.027 l 7.468,-5.099 c 0.567,-0.386 1.341,-0.241 1.727,0.326 0.387,0.567 0.242,1.34 -0.325,1.727 l -5.965,4.072 5.965,4.072 c 0.567,0.387 0.713,1.16 0.325,1.727 -0.24,0.354 -0.63,0.544 -1.027,0.544 z" /></g></g><g
       transform="translate(0,55)"
       id="g22"
       style="fill:#f44336;fill-opacity:1"><g
         id="g24"
         style="fill:#f44336;fill-opacity:1"><path
           style="fill:#f44336;fill-opacity:1"
           inkscape:connector-curvature="0"
           id="path26"
           d="m 41.63,63.005 c -0.397,0 -0.787,-0.19 -1.028,-0.542 -0.387,-0.567 -0.242,-1.34 0.325,-1.728 l 5.964,-4.072 -5.964,-4.072 c -0.567,-0.387 -0.713,-1.16 -0.325,-1.728 0.387,-0.567 1.159,-0.713 1.727,-0.326 l 7.468,5.099 c 0.339,0.232 0.542,0.616 0.542,1.027 0,0.411 -0.203,0.795 -0.542,1.027 l -7.468,5.099 c -0.213,0.146 -0.457,0.216 -0.699,0.216 z" /></g></g><g
       transform="translate(0,55)"
       id="g28"
       style="fill:#f44336;fill-opacity:1"><path
         style="fill:#f44336;fill-opacity:1"
         inkscape:connector-curvature="0"
         id="path30"
         d="m 30.17,65.373 c -0.151,0 -0.304,-0.028 -0.453,-0.086 -0.639,-0.251 -0.954,-0.972 -0.703,-1.611 l 5.861,-14.933 c 0.25,-0.639 0.969,-0.954 1.611,-0.703 0.639,0.251 0.954,0.972 0.703,1.611 l -5.861,14.933 c -0.192,0.49 -0.661,0.789 -1.158,0.789 z" /></g><g
       transform="translate(0,55)"
       id="g32"
       style="fill:#f44336;fill-opacity:1"><g
         id="g34"
         style="fill:#f44336;fill-opacity:1"><circle
           d="m 16.695,32.237 c 0,1.306153 -1.058847,2.365 -2.365,2.365 -1.306154,0 -2.365,-1.058847 -2.365,-2.365 0,-1.306154 1.058846,-2.365 2.365,-2.365 1.306153,0 2.365,1.058846 2.365,2.365 z"
           sodipodi:ry="2.365"
           sodipodi:rx="2.365"
           sodipodi:cy="32.237"
           sodipodi:cx="14.33"
           id="circle36"
           r="2.365"
           cy="32.237"
           cx="14.33"
           style="fill:#f44336;fill-opacity:1" /></g><g
         id="g38"
         style="fill:#f44336;fill-opacity:1"><circle
           d="m 23.105999,32.237 c 0,1.306153 -1.058846,2.365 -2.365,2.365 -1.306153,0 -2.365,-1.058847 -2.365,-2.365 0,-1.306154 1.058847,-2.365 2.365,-2.365 1.306154,0 2.365,1.058846 2.365,2.365 z"
           sodipodi:ry="2.365"
           sodipodi:rx="2.365"
           sodipodi:cy="32.237"
           sodipodi:cx="20.740999"
           id="circle40"
           r="2.365"
           cy="32.237"
           cx="20.740999"
           style="fill:#f44336;fill-opacity:1" /></g><g
         id="g42"
         style="fill:#f44336;fill-opacity:1"><circle
           d="m 29.465,32.237 c 0,1.306153 -1.058846,2.365 -2.365,2.365 -1.306153,0 -2.365,-1.058847 -2.365,-2.365 0,-1.306154 1.058847,-2.365 2.365,-2.365 1.306154,0 2.365,1.058846 2.365,2.365 z"
           sodipodi:ry="2.365"
           sodipodi:rx="2.365"
           sodipodi:cy="32.237"
           sodipodi:cx="27.1"
           id="circle44"
           r="2.365"
           cy="32.237"
           cx="27.1"
           style="fill:#f44336;fill-opacity:1" /></g></g></g></svg>