<svg xmlns="http://www.w3.org/2000/svg" xmlns:xlink="http://www.w3.org/1999/xlink" version="1.1" x="0px" y="0px" viewBox="0 0 100 125" enable-background="new 0 0 100 100" xml:space="preserve"><g><g><path fill="#000000" d="M94.455,33.061l-6.228-6.228c-0.727-0.727-1.908-0.727-2.635,0l-5.631,5.637l-5.432,5.432V24.776    c0-1.032-0.839-1.865-1.865-1.865h-65.8C5.833,22.911,5,23.744,5,24.776v50.448c0,1.032,0.833,1.865,1.865,1.865h65.8    c1.026,0,1.865-0.833,1.865-1.865V55.622l19.926-19.926C95.182,34.969,95.182,33.788,94.455,33.061z M8.729,26.64H70.8v10.982    H8.729V26.64z M70.8,73.36H8.729V41.352H70.8v0.28L58.195,54.229c-0.168,0.168-0.298,0.367-0.391,0.584l-4.661,10.889    c-0.298,0.696-0.143,1.51,0.391,2.051c0.361,0.354,0.839,0.547,1.324,0.547c0.242,0,0.497-0.05,0.733-0.155l10.883-4.655    c0.218-0.093,0.416-0.23,0.584-0.398l3.742-3.741V73.36z M60.408,58.201l2.679,2.679l-4.686,2.008L60.408,58.201z M71.347,53.533    l-6.047,6.041l-3.586-3.586L81.44,36.261l3.586,3.586L71.347,53.533z M86.785,38.089l-3.586-3.586l-0.603,0.603    c0.218-0.218,0.373-0.472,0.46-0.746l0.143,0.143l3.71-3.71l3.586,3.586L86.785,38.089z"/><path fill="#000000" d="M83.199,34.503l-0.603,0.603c0.218-0.218,0.373-0.472,0.46-0.746L83.199,34.503z"/></g><g><path fill="#000000" d="M83.199,34.503l-0.603,0.603c0.218-0.218,0.373-0.472,0.46-0.746L83.199,34.503z"/></g></g><g><g><path fill="#000000" d="M24.572,63.005c-0.242,0-0.485-0.07-0.7-0.216l-7.468-5.099c-0.339-0.232-0.542-0.616-0.542-1.027    c0-0.411,0.203-0.795,0.542-1.027l7.468-5.099c0.567-0.386,1.341-0.241,1.727,0.326c0.387,0.567,0.242,1.34-0.325,1.727    l-5.965,4.072l5.965,4.072c0.567,0.387,0.713,1.16,0.325,1.727C25.359,62.815,24.969,63.005,24.572,63.005z"/></g></g><g><g><path fill="#000000" d="M41.63,63.005c-0.397,0-0.787-0.19-1.028-0.542c-0.387-0.567-0.242-1.34,0.325-1.728l5.964-4.072    l-5.964-4.072c-0.567-0.387-0.713-1.16-0.325-1.728c0.387-0.567,1.159-0.713,1.727-0.326l7.468,5.099    c0.339,0.232,0.542,0.616,0.542,1.027c0,0.411-0.203,0.795-0.542,1.027l-7.468,5.099C42.116,62.935,41.872,63.005,41.63,63.005z"/></g></g><g><path fill="#000000" d="M30.17,65.373c-0.151,0-0.304-0.028-0.453-0.086c-0.639-0.251-0.954-0.972-0.703-1.611l5.861-14.933   c0.25-0.639,0.969-0.954,1.611-0.703c0.639,0.251,0.954,0.972,0.703,1.611l-5.861,14.933C31.136,65.074,30.667,65.373,30.17,65.373   z"/></g><g><g><circle cx="14.33" cy="32.237" r="2.365"/></g><g><circle cx="20.741" cy="32.237" r="2.365"/></g><g><circle cx="27.1" cy="32.237" r="2.365"/></g></g><text x="0" y="115" fill="#000000" font-size="5px" font-weight="bold" font-family="'Helvetica Neue', Helvetica, Arial-Unicode, Arial, Sans-serif">Created by Garrett Knoll</text><text x="0" y="120" fill="#000000" font-size="5px" font-weight="bold" font-family="'Helvetica Neue', Helvetica, Arial-Unicode, Arial, Sans-serif">from the Noun Project</text></svg>