<svg xmlns="http://www.w3.org/2000/svg" xmlns:xlink="http://www.w3.org/1999/xlink" version="1.1" x="0px" y="0px" viewBox="0 0 100 125" enable-background="new 0 0 100 100" xml:space="preserve"><g><rect x="49.628" y="67.213" fill="#000000" width="20.149" height="9.414"/><rect x="49.628" y="48.395" fill="#000000" width="20.149" height="14.111"/><rect x="23.611" y="35.309" fill="#000000" width="20.159" height="41.318"/><g><path fill="#000000" d="M88.1,24.459H74.792V12.018c0-1.631-1.42-1.768-3.173-1.768c-1.749,0-3.169,0.137-3.169,1.768v12.441    H55.147c-1.758,0-1.915,1.338-1.915,2.959c0,1.641,0.157,2.969,1.915,2.969H68.45v12.441c0,1.621,1.42,1.768,3.169,1.768    c1.753,0,3.173-0.146,3.173-1.768V30.387H88.1c1.744,0,1.9-1.328,1.9-2.969C90,25.797,89.844,24.459,88.1,24.459z"/></g><path fill="#000000" d="M77.134,57.232v26.582H16.27V28.092h28.725v-6.396l-33.73,0.029c-0.7,0-1.264,0.674-1.264,1.504   l0.049,65.527c0,0.83,0.578,1.494,1.288,1.494l70.772-0.068c0.711,0,1.283-0.674,1.283-1.504l-0.029-31.445H77.134z"/></g><text x="0" y="115" fill="#000000" font-size="5px" font-weight="bold" font-family="'Helvetica Neue', Helvetica, Arial-Unicode, Arial, Sans-serif">Created by icons.design</text><text x="0" y="120" fill="#000000" font-size="5px" font-weight="bold" font-family="'Helvetica Neue', Helvetica, Arial-Unicode, Arial, Sans-serif">from the Noun Project</text></svg>