<?xml version="1.0" encoding="UTF-8" standalone="no"?>
<svg
   xmlns:dc="http://purl.org/dc/elements/1.1/"
   xmlns:cc="http://creativecommons.org/ns#"
   xmlns:rdf="http://www.w3.org/1999/02/22-rdf-syntax-ns#"
   xmlns:svg="http://www.w3.org/2000/svg"
   xmlns="http://www.w3.org/2000/svg"
   xmlns:sodipodi="http://sodipodi.sourceforge.net/DTD/sodipodi-0.dtd"
   xmlns:inkscape="http://www.inkscape.org/namespaces/inkscape"
   version="1.1"
   x="0px"
   y="0px"
   viewBox="0 0 180 180"
   enable-background="new 0 0 100 100"
   xml:space="preserve"
   id="svg2"
   inkscape:version="0.48.4 r9939"
   width="100%"
   height="100%"
   sodipodi:docname="widget-template.svg"><metadata
     id="metadata26"><rdf:RDF><cc:Work
         rdf:about=""><dc:format>image/svg+xml</dc:format><dc:type
           rdf:resource="http://purl.org/dc/dcmitype/StillImage" /></cc:Work></rdf:RDF></metadata><defs
     id="defs24" /><sodipodi:namedview
     pagecolor="#ffffff"
     bordercolor="#666666"
     borderopacity="1"
     objecttolerance="10"
     gridtolerance="10"
     guidetolerance="10"
     inkscape:pageopacity="0"
     inkscape:pageshadow="2"
     inkscape:window-width="1366"
     inkscape:window-height="744"
     id="namedview22"
     showgrid="false"
     inkscape:zoom="2.28448"
     inkscape:cx="-2.9328337"
     inkscape:cy="48.357931"
     inkscape:window-x="0"
     inkscape:window-y="24"
     inkscape:window-maximized="1"
     inkscape:current-layer="svg2" /><g
     id="g4"
     transform="matrix(2.2500281,0,0,2.25,-22.50253,-23.0625)"
     style="fill:#f44336;fill-opacity:1"><rect
       x="49.627998"
       y="67.212997"
       width="20.149"
       height="9.4139996"
       id="rect6"
       style="fill:#f44336;fill-opacity:1" /><rect
       x="49.627998"
       y="48.395"
       width="20.149"
       height="14.111"
       id="rect8"
       style="fill:#f44336;fill-opacity:1" /><rect
       x="23.611"
       y="35.308998"
       width="20.159"
       height="41.318001"
       id="rect10"
       style="fill:#f44336;fill-opacity:1" /><g
       id="g12"
       style="fill:#f44336;fill-opacity:1"><path
         d="M 88.1,24.459 H 74.792 V 12.018 c 0,-1.631 -1.42,-1.768 -3.173,-1.768 -1.749,0 -3.169,0.137 -3.169,1.768 V 24.459 H 55.147 c -1.758,0 -1.915,1.338 -1.915,2.959 0,1.641 0.157,2.969 1.915,2.969 H 68.45 v 12.441 c 0,1.621 1.42,1.768 3.169,1.768 1.753,0 3.173,-0.146 3.173,-1.768 V 30.387 H 88.1 c 1.744,0 1.9,-1.328 1.9,-2.969 0,-1.621 -0.156,-2.959 -1.9,-2.959 z"
         id="path14"
         inkscape:connector-curvature="0"
         style="fill:#f44336;fill-opacity:1" /></g><path
       d="M 77.134,57.232 V 83.814 H 16.27 V 28.092 h 28.725 v -6.396 l -33.73,0.029 c -0.7,0 -1.264,0.674 -1.264,1.504 l 0.049,65.527 c 0,0.83 0.578,1.494 1.288,1.494 L 82.11,90.182 c 0.711,0 1.283,-0.674 1.283,-1.504 L 83.364,57.233 h -6.23 z"
       id="path16"
       inkscape:connector-curvature="0"
       style="fill:#f44336;fill-opacity:1" /></g></svg>