<svg xmlns="http://www.w3.org/2000/svg" viewBox="0 0 180 180"><g fill="#f44336"><path d="M89.162 128.167h45.336v21.18H89.162zM89.162 85.826h45.336v31.75H89.162zM30.623 56.383H75.98v92.965H30.624zM175.725 31.97h-29.943V3.978c0-3.67-3.195-3.978-7.14-3.978-3.935 0-7.13.308-7.13 3.978V31.97H101.58c-3.956 0-4.31 3.01-4.31 6.658 0 3.692.354 6.68 4.31 6.68h29.932V73.3c0 3.648 3.195 3.98 7.13 3.98 3.945-.002 7.14-.33 7.14-3.98V45.308h29.943c3.924 0 4.275-2.988 4.275-6.68 0-3.647-.35-6.658-4.275-6.658z"/><path d="M151.05 105.71v59.81H14.106V40.143h64.632v-14.39l-75.893.065C1.27 25.82 0 27.334 0 29.202L.11 176.64c0 1.866 1.3 3.36 2.898 3.36l159.24-.153c1.6 0 2.886-1.516 2.886-3.384l-.065-70.75h-14.02z"/></g></svg>